<svg width="1244" height="479" viewBox="0 0 1244 479" fill="none" xmlns="http://www.w3.org/2000/svg">
<path d="M1063.86 271C1105.23 353.251 1170.39 526.695 980.351 465C766.872 395.697 1066.35 313.023 1135.85 293.184" stroke="#064789" stroke-width="2" stroke-dasharray="6 6"/>
<path d="M1030.78 60C1069.39 96.2219 1165.83 146.933 1242.78 60" stroke="#064789" stroke-width="2" stroke-dasharray="6 6"/>
<path d="M1153.17 94.4665C1156.27 97.8756 1159.62 100.995 1163.62 103.763C1162.92 104.379 1162.25 104.962 1161.59 105.53C1160.54 106.435 1159.54 107.302 1158.56 108.2C1156.65 109.988 1154.78 111.822 1152.91 113.656C1152.5 114.064 1152.08 114.473 1151.66 114.881C1151.23 115.307 1150.85 115.773 1150.5 116.267C1150.11 116.825 1150.14 117.424 1150.55 117.96C1150.96 118.496 1151.53 118.726 1152.16 118.503C1152.36 118.434 1152.55 118.37 1152.75 118.306C1153.93 117.924 1155.12 117.541 1155.49 116.029C1155.53 115.878 1155.68 115.75 1155.83 115.623C1155.89 115.566 1155.96 115.509 1156.01 115.451C1156.61 114.855 1157.2 114.255 1157.8 113.655C1159.09 112.35 1160.39 111.045 1161.72 109.777C1163.6 107.99 1165.5 106.189 1168.23 105.709C1168.86 105.603 1169.24 105.084 1169.32 104.411C1169.4 103.75 1169.13 103.233 1168.59 102.861C1168.42 102.744 1168.24 102.657 1168.05 102.572C1168 102.547 1167.95 102.522 1167.9 102.496C1165.02 101.02 1162.48 99.0632 1160.13 96.8789C1159.03 95.8655 1157.96 94.8072 1156.9 93.749C1156.37 93.22 1155.83 92.691 1155.3 92.1676C1155.18 92.0559 1155.07 91.9425 1154.95 91.8291C1154.63 91.5162 1154.32 91.2042 1153.96 90.9328C1153.37 90.4808 1152.54 90.5403 1152.04 90.9764C1151.53 91.438 1151.41 92.1748 1151.87 92.8556C1152.25 93.4295 1152.71 93.9545 1153.17 94.4665Z" fill="#FAB029"/>
<path d="M1152.56 103.002C1152.86 103.209 1153.2 103.434 1153.58 103.678C1153.41 103.8 1153.26 103.905 1153.13 103.996C1152.79 104.245 1152.58 104.394 1152.35 104.528C1147.54 107.153 1143.06 110.272 1138.62 113.458C1137.92 113.965 1137.22 114.484 1136.61 115.098C1136.26 115.436 1136.02 115.947 1135.88 116.423C1135.73 116.937 1135.92 117.517 1136.44 117.745C1136.8 117.902 1137.29 117.946 1137.65 117.83C1138.09 117.696 1138.48 117.425 1138.86 117.158C1138.91 117.126 1138.96 117.094 1139 117.063C1140.49 116.027 1141.99 114.979 1143.47 113.917C1147 111.373 1150.61 108.988 1154.42 106.91C1154.48 106.875 1154.55 106.84 1154.61 106.806C1155.53 106.302 1156.42 105.812 1157.58 106.367C1158.16 106.65 1158.76 106.256 1159.11 105.685C1159.46 105.113 1159.4 104.499 1159.02 103.977C1158.77 103.629 1158.46 103.292 1158.1 103.084C1157.42 102.685 1156.74 102.283 1156.06 101.882C1153.69 100.477 1151.31 99.0716 1148.87 97.7746C1146.44 96.4809 1143.97 95.2738 1141.5 94.0667C1140.54 93.5998 1139.59 93.1328 1138.63 92.6609C1138.59 92.6362 1138.54 92.6059 1138.5 92.5757C1138.39 92.5029 1138.28 92.4302 1138.17 92.4352C1138.11 92.4375 1138.05 92.4385 1137.99 92.4395C1137.69 92.4445 1137.35 92.4502 1137.24 92.6075C1137.02 92.9112 1136.81 93.4887 1136.96 93.7415C1137.29 94.3134 1137.76 94.8908 1138.32 95.2375C1139.94 96.236 1141.6 97.158 1143.29 98.055C1144.6 98.7423 1145.91 99.4136 1147.22 100.085C1148.53 100.756 1149.84 101.428 1151.15 102.115C1151.61 102.36 1152.05 102.656 1152.56 103.002Z" fill="#FAB029"/>
<path d="M783.785 84C812.372 47.7781 883.795 -2.93263 940.785 84" stroke="#064789" stroke-width="2" stroke-dasharray="6 6"/>
<path d="M868.285 25.9392C871.525 29.2078 875.01 32.176 879.133 34.7634C878.463 35.4091 877.814 36.0219 877.182 36.6188C876.176 37.5696 875.212 38.4802 874.272 39.42C872.45 41.2914 870.662 43.206 868.874 45.1214C868.476 45.548 868.078 45.9745 867.679 46.4007C867.265 46.8451 866.902 47.3282 866.58 47.8371C866.218 48.4112 866.274 49.0087 866.707 49.526C867.141 50.0432 867.715 50.2477 868.34 49.9969C868.531 49.9191 868.726 49.8464 868.921 49.7736C870.084 49.3402 871.254 48.9042 871.557 47.3779C871.592 47.2252 871.733 47.0905 871.872 46.9572C871.934 46.8973 871.996 46.8378 872.049 46.7771C872.62 46.1552 873.187 45.5295 873.755 44.9036C874.989 43.543 876.223 42.1814 877.501 40.8561C879.302 38.9865 881.116 37.1039 883.823 36.5025C884.448 36.3688 884.81 35.8337 884.858 35.1575C884.906 34.4943 884.616 33.9892 884.054 33.6417C883.882 33.5322 883.694 33.4539 883.51 33.3766C883.455 33.3539 883.401 33.3313 883.348 33.3081C880.406 31.9612 877.788 30.1185 875.337 28.0408C874.193 27.0772 873.083 26.0672 871.973 25.0572C871.418 24.5523 870.863 24.0474 870.304 23.5484C870.182 23.442 870.062 23.3337 869.942 23.2256C869.61 22.9271 869.28 22.6294 868.915 22.374C868.3 21.9489 867.479 22.0448 866.999 22.5027C866.507 22.9866 866.42 23.7279 866.906 24.3879C867.314 24.9443 867.799 25.4482 868.285 25.9392Z" fill="#FAB029"/>
<path d="M868.047 34.4934C868.362 34.6867 868.705 34.897 869.097 35.1234C868.93 35.2533 868.789 35.3643 868.666 35.4611C868.331 35.7255 868.131 35.8834 867.903 36.0275C863.214 38.8634 858.88 42.1781 854.585 45.5575C853.91 46.0945 853.236 46.6445 852.653 47.2849C852.316 47.6379 852.098 48.1591 851.983 48.6407C851.856 49.1614 852.068 49.732 852.604 49.9367C852.97 50.0774 853.452 50.1005 853.817 49.9683C854.247 49.8147 854.624 49.5266 854.996 49.2426C855.04 49.2088 855.084 49.175 855.128 49.1415C856.569 48.041 858.022 46.9273 859.449 45.8009C862.861 43.1027 866.366 40.5599 870.081 38.3148C870.143 38.2775 870.205 38.2399 870.266 38.2024C871.161 37.659 872.033 37.1294 873.218 37.6328C873.807 37.8892 874.391 37.4697 874.713 36.8829C875.035 36.296 874.954 35.6857 874.546 35.1812C874.284 34.8449 873.956 34.522 873.589 34.3292C872.892 33.9608 872.195 33.5898 871.499 33.2189C869.062 31.9207 866.625 30.6225 864.134 29.4347C861.645 28.2503 859.123 27.1539 856.601 26.0576C855.626 25.6335 854.65 25.2094 853.676 24.7803C853.63 24.7576 853.584 24.7293 853.538 24.7011C853.427 24.6332 853.316 24.5653 853.206 24.5752C853.15 24.58 853.09 24.5836 853.028 24.5874C852.729 24.6057 852.389 24.6265 852.282 24.7887C852.075 25.1019 851.896 25.6879 852.054 25.9339C852.409 26.4906 852.908 27.0465 853.484 27.3679C855.145 28.2936 856.845 29.1411 858.571 29.9624C859.904 30.5912 861.244 31.2037 862.584 31.8162C863.924 32.4286 865.264 33.0411 866.598 33.6699C867.072 33.8946 867.521 34.1704 868.047 34.4934Z" fill="#FAB029"/>
<path d="M0.784912 62C29.3723 25.7781 100.795 -24.9326 157.785 62" stroke="#064789" stroke-width="2" stroke-dasharray="6 6"/>
<path d="M75.6484 6.24361C79.3199 9.01873 83.1922 11.4615 87.6403 13.437C87.0689 14.1713 86.5139 14.8701 85.9731 15.5507C85.1119 16.6348 84.287 17.6732 83.4908 18.7369C81.9526 20.8483 80.4554 22.9974 78.9575 25.1475C78.6239 25.6263 78.2903 26.1051 77.9563 26.5836C77.6091 27.0824 77.3194 27.6121 77.0721 28.1616C76.7958 28.7813 76.9359 29.3648 77.4384 29.8153C77.9408 30.2657 78.5389 30.3864 79.1212 30.0495C79.299 29.9454 79.4818 29.8457 79.6649 29.7458C80.7542 29.1517 81.8503 28.5539 81.9336 26.9999C81.9466 26.8438 82.0667 26.6904 82.1856 26.5387C82.2389 26.4706 82.292 26.4028 82.335 26.3353C82.8121 25.6386 83.2848 24.9387 83.7577 24.2385C84.7857 22.7163 85.8144 21.1931 86.8908 19.6997C88.4077 17.5932 89.9355 15.472 92.5305 14.492C93.1301 14.2707 93.4122 13.6897 93.3637 13.0136C93.3171 12.3503 92.9584 11.8915 92.352 11.6274C92.1662 11.5435 91.9697 11.4926 91.7757 11.4424C91.7187 11.4276 91.6619 11.4129 91.6058 11.3975C88.5028 10.4822 85.649 9.03031 82.9281 7.3219C81.6583 6.5307 80.4161 5.68864 79.1738 4.84658C78.5529 4.42565 77.9319 4.00473 77.3075 3.59016C77.1717 3.50219 77.0374 3.41213 76.9032 3.32216C76.5328 3.07373 76.1635 2.82603 75.7657 2.62511C75.0962 2.29168 74.2974 2.50331 73.8878 3.02463C73.4691 3.57359 73.4885 4.31977 74.0637 4.90388C74.5462 5.39674 75.0983 5.8266 75.6484 6.24361Z" fill="#FAB029"/>
<path d="M76.6289 14.7448C76.9681 14.8914 77.337 15.0509 77.7571 15.2193C77.6104 15.3716 77.4868 15.5015 77.3791 15.6148C77.0849 15.9241 76.9092 16.1088 76.7038 16.2838C72.4653 19.7572 68.6461 23.6541 64.8753 27.6095C64.2838 28.2369 63.6942 28.8771 63.2083 29.5939C62.9251 29.9911 62.7829 30.5381 62.7381 31.031C62.6862 31.5645 62.9772 32.0992 63.5366 32.2257C63.9187 32.313 64.3996 32.2673 64.7414 32.0847C65.1452 31.8716 65.4777 31.5327 65.8053 31.1988C65.8443 31.159 65.8832 31.1193 65.9223 31.0799C67.1917 29.7859 68.472 28.477 69.7247 27.1592C72.719 24.0036 75.8265 20.9887 79.1847 18.2385C79.2409 18.1927 79.2968 18.1467 79.3526 18.1008C80.1607 17.4359 80.9483 16.7878 82.1937 17.1176C82.8124 17.2878 83.331 16.7896 83.5667 16.1629C83.8024 15.5362 83.6345 14.9437 83.1598 14.5022C82.8519 14.2066 82.4814 13.9336 82.0916 13.7948C81.3486 13.5293 80.6066 13.261 79.8646 12.9927C77.2681 12.054 74.6715 11.1152 72.0367 10.2934C69.4049 9.47464 66.7525 8.74774 64.1005 8.02093C63.0745 7.73974 62.0485 7.45856 61.0238 7.17209C60.9749 7.15622 60.9252 7.13479 60.8755 7.11337C60.7561 7.06194 60.6367 7.01052 60.5289 7.03595C60.4743 7.04863 60.4153 7.0608 60.3547 7.07333C60.0614 7.13391 59.7272 7.20292 59.6443 7.37867C59.4842 7.71805 59.3903 8.32351 59.5816 8.54457C60.0125 9.04515 60.5852 9.52451 61.2006 9.7609C62.9765 10.4412 64.7797 11.0385 66.6047 11.6063C68.0141 12.0392 69.4275 12.4551 70.8409 12.8709C72.2543 13.2868 73.6677 13.7027 75.0771 14.1356C75.5786 14.2907 76.0623 14.4998 76.6289 14.7448Z" fill="#FAB029"/>
</svg>
