<svg width="514" height="450" viewBox="0 0 514 450" fill="none" xmlns="http://www.w3.org/2000/svg">
<path fill-rule="evenodd" clip-rule="evenodd" d="M0 0H514V450H0V0ZM0.803125 0.803571H63.4469V63.4821H0.803125V0.803571ZM65.0531 0.803571H127.697V63.4821H65.0531V0.803571ZM191.947 0.803571H129.303V63.4821H191.947V0.803571ZM193.553 0.803571H256.197V63.4821H193.553V0.803571ZM320.447 0.803571H257.803V63.4821H320.447V0.803571ZM322.053 0.803571H384.697V63.4821H322.053V0.803571ZM448.947 0.803571H386.303V63.4821H448.947V0.803571ZM450.553 0.803571H513.197V63.4821H450.553V0.803571ZM63.4469 65.0893H0.803125V127.768H63.4469V65.0893ZM65.0531 65.0893H127.697V127.768H65.0531V65.0893ZM191.947 65.0893H129.303V127.768H191.947V65.0893ZM193.553 65.0893H256.197V127.768H193.553V65.0893ZM320.447 65.0893H257.803V127.768H320.447V65.0893ZM322.053 65.0893H384.697V127.768H322.053V65.0893ZM448.947 65.0893H386.303V127.768H448.947V65.0893ZM450.553 65.0893H513.197V127.768H450.553V65.0893ZM63.4469 129.375H0.803125V192.054H63.4469V129.375ZM65.0531 129.375H127.697V192.054H65.0531V129.375ZM191.947 129.375H129.303V192.054H191.947V129.375ZM193.553 129.375H256.197V192.054H193.553V129.375ZM320.447 129.375H257.803V192.054H320.447V129.375ZM322.053 129.375H384.697V192.054H322.053V129.375ZM448.947 129.375H386.303V192.054H448.947V129.375ZM450.553 129.375H513.197V192.054H450.553V129.375ZM63.4469 193.661H0.803125V256.339H63.4469V193.661ZM65.0531 193.661H127.697V256.339H65.0531V193.661ZM191.947 193.661H129.303V256.339H191.947V193.661ZM193.553 193.661H256.197V256.339H193.553V193.661ZM320.447 193.661H257.803V256.339H320.447V193.661ZM322.053 193.661H384.697V256.339H322.053V193.661ZM448.947 193.661H386.303V256.339H448.947V193.661ZM450.553 193.661H513.197V256.339H450.553V193.661ZM63.4469 257.946H0.803125V320.625H63.4469V257.946ZM65.0531 257.946H127.697V320.625H65.0531V257.946ZM191.947 257.946H129.303V320.625H191.947V257.946ZM193.553 257.946H256.197V320.625H193.553V257.946ZM320.447 257.946H257.803V320.625H320.447V257.946ZM322.053 257.946H384.697V320.625H322.053V257.946ZM448.947 257.946H386.303V320.625H448.947V257.946ZM450.553 257.946H513.197V320.625H450.553V257.946ZM63.4469 322.232H0.803125V384.911H63.4469V322.232ZM65.0531 322.232H127.697V384.911H65.0531V322.232ZM191.947 322.232H129.303V384.911H191.947V322.232ZM193.553 322.232H256.197V384.911H193.553V322.232ZM320.447 322.232H257.803V384.911H320.447V322.232ZM322.053 322.232H384.697V384.911H322.053V322.232ZM448.947 322.232H386.303V384.911H448.947V322.232ZM450.553 322.232H513.197V384.911H450.553V322.232ZM63.4469 386.518H0.803125V449.196H63.4469V386.518ZM65.0531 386.518H127.697V449.196H65.0531V386.518ZM191.947 386.518H129.303V449.196H191.947V386.518ZM193.553 386.518H256.197V449.196H193.553V386.518ZM320.447 386.518H257.803V449.196H320.447V386.518ZM322.053 386.518H384.697V449.196H322.053V386.518ZM448.947 386.518H386.303V449.196H448.947V386.518ZM450.553 386.518H513.197V449.196H450.553V386.518Z" fill="#197B55" fill-opacity="0.08"/>
</svg>
