<svg width="317" height="114" viewBox="0 0 317 114" fill="none" xmlns="http://www.w3.org/2000/svg">
<path d="M25.9998 86C100.171 32.1714 196.105 18.3553 282.451 49.0673L316 61" stroke="#698E45" stroke-width="4" stroke-dasharray="10 10"/>
<path d="M12.2569 87.8144C12.7403 92.0012 12.8682 96.1919 12.3597 100.62C13.2047 100.51 14.014 100.397 14.8024 100.287C16.0581 100.111 17.2608 99.9427 18.4702 99.8088C20.8511 99.5764 23.2428 99.3938 25.6354 99.2111C26.1683 99.1704 26.7011 99.1297 27.2339 99.0885C27.7889 99.0464 28.3415 99.0639 28.89 99.1242C29.5074 99.1942 29.9027 99.5759 30.0246 100.182C30.1465 100.788 29.9638 101.316 29.4274 101.618C29.2626 101.71 29.0989 101.808 28.9351 101.906C27.9599 102.49 26.9788 103.077 25.714 102.42C25.5847 102.358 25.4079 102.382 25.2329 102.405C25.1544 102.415 25.0762 102.426 25.003 102.428C24.2315 102.481 23.4595 102.529 22.6872 102.576C21.0084 102.68 19.3284 102.784 17.6497 102.939C15.2826 103.157 12.8988 103.377 10.9194 104.969C10.4662 105.339 9.87657 105.292 9.36563 104.939C8.86393 104.594 8.6686 104.098 8.74205 103.497C8.76219 103.311 8.81338 103.132 8.8639 102.956C8.87874 102.904 8.89353 102.853 8.90744 102.801C9.62738 99.9272 9.80801 97.0006 9.72448 94.0597C9.69032 92.69 9.60322 91.3185 9.51611 89.9469C9.47258 89.2613 9.42904 88.5757 9.39211 87.8903C9.38582 87.7422 9.37717 87.5944 9.36852 87.4468C9.34464 87.039 9.32083 86.6325 9.34718 86.2252C9.39522 85.542 9.93345 85.01 10.5352 84.9291C11.163 84.8538 11.7427 85.216 11.9363 85.9413C12.1009 86.5511 12.1835 87.1865 12.2569 87.8144Z" fill="#FAB029"/>
<path d="M18.5092 92.539C18.4673 92.8748 18.4217 93.24 18.3593 93.6498C18.5477 93.6047 18.7076 93.5676 18.847 93.5352C19.2278 93.4469 19.4552 93.3941 19.6888 93.3134C24.3994 91.5832 29.2493 90.3807 34.1229 89.2435C34.8928 89.0684 35.672 88.9007 36.4634 88.8504C36.9085 88.8116 37.4061 88.9536 37.816 89.1473C38.261 89.3543 38.5477 89.8324 38.3875 90.3325C38.2788 90.6747 38.0192 91.0329 37.7163 91.2177C37.3605 91.4373 36.9386 91.5422 36.5229 91.6455C36.4733 91.6578 36.4239 91.6701 36.3747 91.6825C34.7636 92.0827 33.1358 92.4848 31.5138 92.8608C27.6322 93.7568 23.809 94.8077 20.0782 96.1794C20.0159 96.2024 19.9537 96.2252 19.8915 96.2479C18.9913 96.5765 18.1139 96.8967 17.7953 98.0328C17.642 98.6 17.0079 98.7777 16.4039 98.6724C15.7998 98.5671 15.4103 98.1593 15.2826 97.5796C15.1924 97.1992 15.1491 96.78 15.2209 96.4079C15.3566 95.6983 15.4898 94.9881 15.6229 94.2779C16.0889 91.7928 16.5549 89.3076 17.131 86.8467C17.7081 84.3894 18.3672 81.9587 19.0263 79.5283C19.2812 78.588 19.5362 77.6478 19.7864 76.7061C19.7966 76.6601 19.8028 76.6109 19.809 76.5618C19.8239 76.4437 19.8388 76.3256 19.909 76.2523C19.9444 76.2151 19.9813 76.1742 20.0194 76.1322C20.2035 75.9289 20.4133 75.6973 20.5905 75.7136C20.9327 75.745 21.4541 75.9523 21.5396 76.206C21.7344 76.7786 21.8464 77.4533 21.747 78.0487C21.4584 79.7662 21.0917 81.4666 20.6915 83.1706C20.3781 84.4839 20.0494 85.7924 19.7206 87.101C19.3919 88.4095 19.0631 89.7181 18.7497 91.0314C18.639 91.4991 18.5792 91.9781 18.5092 92.539Z" fill="#FAB029"/>
</svg>
