<svg width="317" height="114" viewBox="0 0 317 114" fill="none" xmlns="http://www.w3.org/2000/svg">
<path d="M290.67 86C216.499 32.1714 120.565 18.3553 34.2187 49.0673L0.670227 61" stroke="#698E45" stroke-width="4" stroke-dasharray="10 10"/>
<path d="M304.413 87.8144C303.93 92.0012 303.802 96.1919 304.31 100.62C303.465 100.51 302.656 100.397 301.868 100.287C300.612 100.111 299.409 99.9427 298.2 99.8088C295.819 99.5764 293.427 99.3938 291.035 99.2111C290.502 99.1704 289.969 99.1297 289.436 99.0885C288.881 99.0464 288.329 99.0639 287.78 99.1242C287.163 99.1942 286.767 99.5759 286.645 100.182C286.523 100.788 286.706 101.316 287.243 101.618C287.407 101.71 287.571 101.808 287.735 101.906C288.71 102.49 289.691 103.077 290.956 102.42C291.085 102.358 291.262 102.382 291.437 102.405C291.516 102.415 291.594 102.426 291.667 102.428C292.438 102.481 293.21 102.529 293.983 102.576C295.662 102.68 297.342 102.784 299.02 102.939C301.387 103.157 303.771 103.377 305.751 104.969C306.204 105.339 306.793 105.292 307.304 104.939C307.806 104.594 308.001 104.098 307.928 103.497C307.908 103.311 307.857 103.132 307.806 102.956C307.791 102.904 307.776 102.853 307.763 102.801C307.043 99.9272 306.862 97.0006 306.946 94.0597C306.98 92.69 307.067 91.3185 307.154 89.9469C307.197 89.2613 307.241 88.5757 307.278 87.8903C307.284 87.7422 307.293 87.5944 307.301 87.4468C307.325 87.039 307.349 86.6325 307.323 86.2252C307.275 85.542 306.737 85.01 306.135 84.9291C305.507 84.8538 304.927 85.216 304.734 85.9413C304.569 86.5511 304.486 87.1865 304.413 87.8144Z" fill="#FAB029"/>
<path d="M298.161 92.539C298.203 92.8748 298.248 93.24 298.311 93.6498C298.122 93.6047 297.962 93.5676 297.823 93.5352C297.442 93.4469 297.215 93.3941 296.981 93.3134C292.271 91.5832 287.421 90.3807 282.547 89.2435C281.777 89.0684 280.998 88.9007 280.207 88.8504C279.762 88.8116 279.264 88.9536 278.854 89.1473C278.409 89.3543 278.122 89.8324 278.282 90.3325C278.391 90.6747 278.651 91.0329 278.954 91.2177C279.31 91.4373 279.731 91.5422 280.147 91.6455C280.197 91.6578 280.246 91.6701 280.295 91.6825C281.906 92.0827 283.534 92.4848 285.156 92.8608C289.038 93.7568 292.861 94.8077 296.592 96.1794C296.654 96.2024 296.716 96.2252 296.778 96.2479C297.679 96.5765 298.556 96.8967 298.875 98.0328C299.028 98.6 299.662 98.7777 300.266 98.6724C300.87 98.5671 301.26 98.1593 301.387 97.5796C301.478 97.1992 301.521 96.78 301.449 96.4079C301.313 95.6983 301.18 94.9881 301.047 94.2779C300.581 91.7928 300.115 89.3076 299.539 86.8467C298.962 84.3894 298.303 81.9587 297.644 79.5283C297.389 78.588 297.134 77.6478 296.884 76.7061C296.873 76.6601 296.867 76.6109 296.861 76.5618C296.846 76.4437 296.831 76.3256 296.761 76.2523C296.726 76.2151 296.689 76.1742 296.651 76.1322C296.466 75.9289 296.257 75.6973 296.079 75.7136C295.737 75.745 295.216 75.9523 295.13 76.206C294.936 76.7786 294.824 77.4533 294.923 78.0487C295.212 79.7662 295.578 81.4666 295.978 83.1706C296.292 84.4839 296.621 85.7924 296.949 87.101C297.278 88.4095 297.607 89.7181 297.92 91.0314C298.031 91.4991 298.091 91.9781 298.161 92.539Z" fill="#FAB029"/>
</svg>
