<svg width="305" height="114" viewBox="0 0 305 114" fill="none" xmlns="http://www.w3.org/2000/svg">
<path d="M25.9998 27.5C100.126 81.2965 196.078 94.9064 282.241 63.8455L304.003 56.0004" stroke="#698E45" stroke-width="4" stroke-dasharray="10 10"/>
<path d="M12.2569 25.6856C12.7403 21.4988 12.8682 17.3081 12.3597 12.8801C13.2047 12.9896 14.014 13.1029 14.8024 13.2133C16.0581 13.389 17.2608 13.5573 18.4702 13.6912C20.8511 13.9237 23.2428 14.1062 25.6354 14.2889C26.1683 14.3296 26.7011 14.3703 27.2339 14.4115C27.7889 14.4536 28.3415 14.4361 28.89 14.3758C29.5074 14.3058 29.9027 13.9241 30.0246 13.3182C30.1465 12.7124 29.9638 12.1844 29.4274 11.8815C29.2626 11.7896 29.0989 11.6917 28.9351 11.5937C27.9599 11.0102 26.9788 10.4232 25.714 11.0796C25.5847 11.142 25.4079 11.1184 25.2329 11.0952C25.1544 11.0847 25.0762 11.0743 25.003 11.0718C24.2315 11.0191 23.4595 10.9714 22.6872 10.9237C21.0084 10.82 19.3284 10.7162 17.6497 10.5609C15.2826 10.343 12.8988 10.1233 10.9194 8.53107C10.4662 8.16075 9.87657 8.20822 9.36563 8.56075C8.86393 8.90579 8.6686 9.40206 8.74205 10.0032C8.76219 10.1888 8.81338 10.3676 8.8639 10.544C8.87874 10.5958 8.89353 10.6474 8.90744 10.6989C9.62738 13.5728 9.80801 16.4994 9.72448 19.4403C9.69032 20.81 9.60322 22.1815 9.51611 23.5531C9.47258 24.2387 9.42904 24.9244 9.39211 25.6097C9.38582 25.7578 9.37717 25.9056 9.36852 26.0533C9.34464 26.461 9.32083 26.8675 9.34718 27.2748C9.39522 27.958 9.93345 28.49 10.5352 28.5709C11.163 28.6462 11.7427 28.284 11.9363 27.5587C12.1009 26.949 12.1835 26.3135 12.2569 25.6856Z" fill="#FAB029"/>
<path d="M18.5092 20.961C18.4673 20.6252 18.4217 20.26 18.3593 19.8502C18.5477 19.8953 18.7076 19.9324 18.847 19.9648C19.2278 20.0532 19.4552 20.1059 19.6888 20.1866C24.3994 21.9168 29.2493 23.1193 34.1229 24.2565C34.8928 24.4317 35.672 24.5993 36.4634 24.6496C36.9085 24.6885 37.4061 24.5464 37.816 24.3527C38.261 24.1458 38.5477 23.6677 38.3875 23.1675C38.2788 22.8253 38.0192 22.4671 37.7163 22.2823C37.3605 22.0627 36.9386 21.9578 36.5229 21.8545C36.4733 21.8422 36.4239 21.83 36.3747 21.8175C34.7636 21.4173 33.1358 21.0152 31.5138 20.6393C27.6322 19.7432 23.809 18.6923 20.0782 17.3206C20.0159 17.2976 19.9537 17.2748 19.8915 17.2521C18.9913 16.9235 18.1139 16.6033 17.7953 15.4672C17.642 14.9 17.0079 14.7223 16.4039 14.8276C15.7998 14.9329 15.4103 15.3407 15.2826 15.9205C15.1924 16.3008 15.1491 16.72 15.2209 17.0921C15.3566 17.8017 15.4898 18.5119 15.6229 19.2221C16.0889 21.7072 16.5549 24.1924 17.131 26.6533C17.7081 29.1106 18.3672 31.5413 19.0263 33.9717C19.2812 34.912 19.5362 35.8522 19.7864 36.7939C19.7966 36.8399 19.8028 36.8891 19.809 36.9382C19.8239 37.0563 19.8388 37.1744 19.909 37.2477C19.9444 37.2849 19.9813 37.3258 20.0194 37.3678C20.2035 37.5711 20.4133 37.8027 20.5905 37.7864C20.9327 37.755 21.4541 37.5477 21.5396 37.294C21.7344 36.7214 21.8464 36.0467 21.747 35.4513C21.4584 33.7338 21.0917 32.0334 20.6915 30.3294C20.3781 29.0161 20.0494 27.7076 19.7206 26.399C19.3919 25.0905 19.0631 23.7819 18.7497 22.4686C18.639 22.0009 18.5792 21.5219 18.5092 20.961Z" fill="#FAB029"/>
</svg>
