<svg width="317" height="114" viewBox="0 0 317 114" fill="none" xmlns="http://www.w3.org/2000/svg">
<path d="M290.67 27.5001C216.499 81.3287 120.565 95.1447 34.2187 64.4327L0.670227 52.5001" stroke="#698E45" stroke-width="4" stroke-dasharray="10 10"/>
<path d="M304.413 25.6856C303.93 21.4988 303.802 17.3081 304.31 12.8802C303.465 12.9897 302.656 13.1029 301.868 13.2133C300.612 13.389 299.409 13.5573 298.2 13.6912C295.819 13.9237 293.427 14.1063 291.035 14.2889C290.502 14.3296 289.969 14.3703 289.436 14.4116C288.881 14.4536 288.329 14.4361 287.78 14.3758C287.163 14.3059 286.767 13.9241 286.645 13.3183C286.523 12.7125 286.706 12.1844 287.243 11.8816C287.407 11.7896 287.571 11.6917 287.735 11.5937C288.71 11.0102 289.691 10.4232 290.956 11.0797C291.085 11.142 291.262 11.1185 291.437 11.0952C291.516 11.0848 291.594 11.0744 291.667 11.0718C292.438 11.0192 293.21 10.9714 293.983 10.9237C295.662 10.82 297.342 10.7162 299.02 10.5609C301.387 10.343 303.771 10.1233 305.751 8.5311C306.204 8.16078 306.793 8.20825 307.304 8.56078C307.806 8.90582 308.001 9.40209 307.928 10.0032C307.908 10.1889 307.857 10.3676 307.806 10.544C307.791 10.5958 307.776 10.6475 307.763 10.699C307.043 13.5728 306.862 16.4994 306.946 19.4403C306.98 20.81 307.067 22.1816 307.154 23.5531C307.197 24.2388 307.241 24.9244 307.278 25.6098C307.284 25.7578 307.293 25.9056 307.301 26.0533C307.325 26.461 307.349 26.8676 307.323 27.2749C307.275 27.9581 306.737 28.49 306.135 28.571C305.507 28.6462 304.927 28.2841 304.734 27.5587C304.569 26.949 304.486 26.3136 304.413 25.6856Z" fill="#FAB029"/>
<path d="M298.161 20.9611C298.203 20.6253 298.248 20.2601 298.311 19.8503C298.122 19.8953 297.962 19.9324 297.823 19.9648C297.442 20.0532 297.215 20.106 296.981 20.1867C292.271 21.9168 287.421 23.1193 282.547 24.2565C281.777 24.4317 280.998 24.5993 280.207 24.6496C279.762 24.6885 279.264 24.5465 278.854 24.3527C278.409 24.1458 278.122 23.6677 278.282 23.1675C278.391 22.8253 278.651 22.4672 278.954 22.2823C279.31 22.0627 279.731 21.9579 280.147 21.8546C280.197 21.8423 280.246 21.83 280.295 21.8175C281.906 21.4173 283.534 21.0153 285.156 20.6393C289.038 19.7432 292.861 18.6923 296.592 17.3206C296.654 17.2976 296.716 17.2749 296.778 17.2522C297.679 16.9236 298.556 16.6033 298.875 15.4673C299.028 14.9 299.662 14.7223 300.266 14.8276C300.87 14.9329 301.26 15.3407 301.387 15.9205C301.478 16.3008 301.521 16.72 301.449 17.0921C301.313 17.8018 301.18 18.5119 301.047 19.2221C300.581 21.7073 300.115 24.1924 299.539 26.6534C298.962 29.1106 298.303 31.5413 297.644 33.9717C297.389 34.912 297.134 35.8523 296.884 36.794C296.873 36.8399 296.867 36.8891 296.861 36.9383C296.846 37.0564 296.831 37.1745 296.761 37.2478C296.726 37.2849 296.689 37.3258 296.651 37.3679C296.466 37.5711 296.257 37.8027 296.079 37.7865C295.737 37.7551 295.216 37.5477 295.13 37.2941C294.936 36.7214 294.824 36.0468 294.923 35.4513C295.212 33.7338 295.578 32.0334 295.978 30.3294C296.292 29.0162 296.621 27.7076 296.949 26.399C297.278 25.0905 297.607 23.7819 297.92 22.4687C298.031 22.0009 298.091 21.522 298.161 20.9611Z" fill="#FAB029"/>
</svg>
