<svg width="26" height="38" viewBox="0 0 26 38" fill="none" xmlns="http://www.w3.org/2000/svg">
<path d="M13.9783 13.8924C16.306 14.4657 18.2325 15.6283 19.471 17.0193C20.7112 18.4123 21.2304 19.9905 20.873 21.4419C20.5155 22.8932 19.3227 24.0498 17.5775 24.7075C15.8346 25.3643 13.5886 25.4992 11.2609 24.926C8.93318 24.3527 7.00673 23.1901 5.76824 21.7991C4.52807 20.4061 4.00878 18.8278 4.36623 17.3765C4.72374 15.9252 5.91647 14.7685 7.66174 14.1108C9.40457 13.4541 11.6506 13.3191 13.9783 13.8924Z" fill="#0ACF83" stroke="#04B36F"/>
<ellipse cx="9.95996" cy="18.7543" rx="5.47826" ry="4.63636" transform="rotate(13.8357 9.95996 18.7543)" fill="#4BF1B1"/>
<mask id="path-3-inside-1_478_1636" fill="white">
<path d="M16.8503 20.23C16.8486 20.237 16.8478 20.2442 16.8461 20.2511C16.8444 20.2581 16.8418 20.2648 16.84 20.2718L16.7594 20.5989L16.7167 20.5884C16.136 21.6988 14.1712 22.1791 12.0656 21.6605C9.96005 21.142 8.44295 19.8041 8.4444 18.551L8.40078 18.5403L10.2882 10.8767L18.6468 12.9353L16.8503 20.23Z"/>
</mask>
<path d="M16.8503 20.23C16.8486 20.237 16.8478 20.2442 16.8461 20.2511C16.8444 20.2581 16.8418 20.2648 16.84 20.2718L16.7594 20.5989L16.7167 20.5884C16.136 21.6988 14.1712 22.1791 12.0656 21.6605C9.96005 21.142 8.44295 19.8041 8.4444 18.551L8.40078 18.5403L10.2882 10.8767L18.6468 12.9353L16.8503 20.23Z" fill="#0ACF83"/>
<path d="M16.8503 20.23L15.8793 19.9909L15.8776 19.9979L15.8759 20.0049L16.8503 20.23ZM16.8461 20.2511L17.8171 20.4903L17.8171 20.4903L16.8461 20.2511ZM16.84 20.2718L15.8725 20.0187L15.8707 20.0256L15.869 20.0326L16.84 20.2718ZM16.7594 20.5989L16.5203 21.5699L17.4913 21.809L17.7304 20.838L16.7594 20.5989ZM16.7167 20.5884L16.9559 19.6174L16.1941 19.4298L15.8306 20.125L16.7167 20.5884ZM12.0656 21.6605L11.8265 22.6315L11.8265 22.6315L12.0656 21.6605ZM8.4444 18.551L9.4444 18.5522L9.4453 17.7677L8.68354 17.58L8.4444 18.551ZM8.40078 18.5403L7.4298 18.3011L7.19066 19.2721L8.16164 19.5113L8.40078 18.5403ZM10.2882 10.8767L10.5273 9.90572L9.55636 9.66658L9.31722 10.6376L10.2882 10.8767ZM18.6468 12.9353L19.6178 13.1745L19.857 12.2035L18.886 11.9643L18.6468 12.9353ZM16.8503 20.23L15.8759 20.0049C15.8716 20.0237 15.8685 20.0392 15.8667 20.0487C15.8658 20.0536 15.8651 20.0576 15.8646 20.0601C15.8644 20.0614 15.8642 20.0625 15.8641 20.0632C15.864 20.0636 15.8639 20.0639 15.8639 20.0641C15.8639 20.0643 15.8638 20.0644 15.8638 20.0645C15.8637 20.065 15.864 20.0638 15.8643 20.0619C15.8647 20.0599 15.8653 20.0565 15.8661 20.0522C15.8678 20.0438 15.8707 20.0296 15.8751 20.012L16.8461 20.2511L17.8171 20.4903C17.8222 20.4692 17.8259 20.4515 17.8283 20.4395C17.8305 20.4282 17.8322 20.4186 17.8326 20.4166C17.833 20.4146 17.8328 20.4154 17.8327 20.4157C17.8326 20.4165 17.8322 20.4188 17.8316 20.4219C17.8305 20.4279 17.8281 20.4399 17.8246 20.4552L16.8503 20.23ZM16.8461 20.2511L15.8751 20.012C15.8794 19.9944 15.8834 19.9804 15.8859 19.9722C15.8871 19.968 15.8881 19.9647 15.8887 19.9628C15.8893 19.961 15.8897 19.9597 15.8895 19.9602C15.8895 19.9603 15.8894 19.9604 15.8894 19.9606C15.8893 19.9608 15.8892 19.9612 15.8891 19.9615C15.8889 19.9622 15.8886 19.9632 15.8882 19.9645C15.8874 19.9669 15.8862 19.9708 15.8847 19.9756C15.8819 19.9849 15.8774 20 15.8725 20.0187L16.84 20.2718L17.8074 20.5248C17.8035 20.54 17.8 20.5518 17.7982 20.5576C17.7973 20.5606 17.7966 20.5628 17.7963 20.5636C17.7962 20.5638 17.796 20.5647 17.7966 20.5627C17.7972 20.5607 17.8001 20.5515 17.8034 20.5404C17.8069 20.5288 17.8119 20.5114 17.8171 20.4903L16.8461 20.2511ZM16.84 20.2718L15.869 20.0326L15.7884 20.3598L16.7594 20.5989L17.7304 20.838L17.811 20.5109L16.84 20.2718ZM16.7594 20.5989L16.9985 19.6279L16.9559 19.6174L16.7167 20.5884L16.4776 21.5594L16.5203 21.5699L16.7594 20.5989ZM16.7167 20.5884L15.8306 20.125C15.7278 20.3216 15.4127 20.6027 14.7346 20.7618C14.0822 20.9149 13.2262 20.9165 12.3048 20.6896L12.0656 21.6605L11.8265 22.6315C13.0107 22.9232 14.1899 22.9439 15.1915 22.7089C16.1673 22.4799 17.125 21.9656 17.6029 21.0518L16.7167 20.5884ZM12.0656 21.6605L12.3048 20.6896C11.3834 20.4626 10.626 20.0637 10.1193 19.6251C9.59262 19.1692 9.44414 18.774 9.4444 18.5522L8.4444 18.551L7.4444 18.5499C7.44321 19.5812 8.05256 20.4814 8.81044 21.1373C9.58832 21.8106 10.6423 22.3399 11.8265 22.6315L12.0656 21.6605ZM8.4444 18.551L8.68354 17.58L8.63992 17.5693L8.40078 18.5403L8.16164 19.5113L8.20526 19.522L8.4444 18.551ZM8.40078 18.5403L9.37177 18.7794L11.2592 11.1158L10.2882 10.8767L9.31722 10.6376L7.4298 18.3011L8.40078 18.5403ZM10.2882 10.8767L10.0491 11.8477L18.4077 13.9063L18.6468 12.9353L18.886 11.9643L10.5273 9.90572L10.2882 10.8767ZM18.6468 12.9353L17.6758 12.6962L15.8793 19.9909L16.8503 20.23L17.8212 20.4692L19.6178 13.1745L18.6468 12.9353Z" fill="#04B36F" mask="url(#path-3-inside-1_478_1636)"/>
<rect x="10.8628" y="11.8142" width="1.56522" height="5.40909" transform="rotate(13.8357 10.8628 11.8142)" fill="#4BF1B1"/>
<path d="M16.7497 2.63766C20.588 3.58299 22.89 6.7041 22.2166 9.43822C21.543 12.1721 18.0552 13.8665 14.217 12.9212C10.379 11.9758 8.07684 8.85554 8.74985 6.12157C9.42322 3.3875 12.9114 1.69244 16.7497 2.63766Z" fill="#0ACF83" stroke="#04B36F"/>
<ellipse cx="13.0087" cy="6.3742" rx="3.13043" ry="2.70455" transform="rotate(13.8357 13.0087 6.3742)" fill="#4BF1B1"/>
<rect x="10.0012" y="25.1311" width="1.56522" height="10.0455" transform="rotate(13.8357 10.0012 25.1311)" fill="white"/>
</svg>
