<svg width="38" height="38" viewBox="0 0 38 38" fill="none" xmlns="http://www.w3.org/2000/svg">
<path d="M1.05569 23.2222H5.27765C5.86051 23.2222 6.33333 23.6945 6.33333 24.2775V34.8332C6.33333 35.416 5.86061 35.8889 5.27765 35.8889H1.05569C0.472823 35.8889 0 35.4161 0 34.8332V24.2775C0 23.6946 0.472724 23.2222 1.05569 23.2222ZM11.611 14.7775H15.8333C16.4162 14.7775 16.889 15.2502 16.889 15.8332V34.8332C16.889 35.416 16.4163 35.8889 15.8333 35.8889H11.611C11.0281 35.8889 10.5557 35.4161 10.5557 34.8332V15.8332C10.5557 15.2503 11.028 14.7775 11.611 14.7775ZM22.1667 18.9998H26.389C26.9719 18.9998 27.4443 19.4726 27.4443 20.0555V34.8332C27.4443 35.416 26.972 35.8889 26.389 35.8889H22.1667C21.5838 35.8889 21.111 35.4161 21.111 34.8332V20.0555C21.111 19.4727 21.5837 18.9998 22.1667 18.9998ZM32.7224 12.6665H36.9443C37.5272 12.6665 38 13.1392 38 13.7222V34.8332C38 35.416 37.5273 35.8889 36.9443 35.8889H32.7224C32.1395 35.8889 31.6667 35.4161 31.6667 34.8332V13.7222C31.6667 13.1393 32.1394 12.6665 32.7224 12.6665Z" fill="white"/>
<path d="M34.8333 0C33.0853 0.00197917 31.6686 1.41867 31.6667 3.16667C31.6709 3.51144 31.732 3.85324 31.8476 4.17792L26.5634 7.31896C26.2215 6.95637 25.7982 6.68037 25.3285 6.51379C24.8588 6.3472 24.3562 6.29481 23.8623 6.36095C23.3683 6.42709 22.8972 6.60986 22.4879 6.89415C22.0786 7.17844 21.7428 7.55607 21.5084 7.99583L16.8477 5.68743C16.8704 5.55176 16.884 5.4149 16.889 5.27765C16.8902 4.6509 16.7054 4.03789 16.358 3.51625C16.0106 2.9946 15.5162 2.58778 14.9374 2.3473C14.3586 2.10682 13.7215 2.04349 13.1067 2.16534C12.4919 2.28719 11.9271 2.58873 11.4838 3.03179C11.0404 3.47474 10.7385 4.03935 10.6162 4.65407C10.494 5.26879 10.557 5.90596 10.7972 6.48484L4.75158 10.9967C4.27206 10.711 3.72485 10.5588 3.16667 10.5557C1.41787 10.5557 0 11.9732 0 13.7224C0 15.4711 1.41787 16.889 3.16667 16.889C4.91546 16.889 6.33333 15.4711 6.33333 13.7224C6.33063 13.3415 6.25871 12.9642 6.12107 12.6091L12.2272 8.05204C13.4216 8.71803 14.9114 8.52279 15.8936 7.5711L21.1937 10.1962C21.547 11.7699 23.0279 12.8259 24.6309 12.6474C26.2341 12.4688 27.4463 11.1131 27.4443 9.5C27.4443 9.41955 27.4265 9.34384 27.4208 9.26497L33.1681 5.84824C33.6665 6.16333 34.2437 6.33146 34.8333 6.33333C36.5821 6.33333 38 4.91546 38 3.16667C38 1.41787 36.5821 0 34.8333 0Z" fill="white"/>
</svg>
