<svg width="38" height="38" viewBox="0 0 38 38" fill="none" xmlns="http://www.w3.org/2000/svg">
<g clip-path="url(#clip0_478_8017)">
<path d="M25.5835 18.2496L21.3148 16.8262L20.5786 10.2047C20.5263 9.52543 19.5922 9.25151 19.1789 9.79143L12.0539 18.4998C11.7008 18.9035 11.9019 19.5954 12.4165 19.7506L16.6852 21.1756L17.4214 27.7955C17.4753 28.4732 18.4047 28.7518 18.8211 28.2088L25.9461 19.5004C26.2992 19.0967 26.0981 18.4048 25.5835 18.2496ZM5.21392 23.7976L7.50975 24.2568C6.58741 22.2858 6.19573 20.1081 6.37346 17.9392C6.55119 15.7703 7.29217 13.6855 8.52308 11.8909L9.70267 13.1956C10.1143 13.6801 10.963 13.4442 11.0675 12.8219L12.6508 4.90526C12.6729 4.79055 12.6695 4.67239 12.6408 4.55916C12.6121 4.44593 12.5588 4.3404 12.4848 4.25005C12.4107 4.1597 12.3177 4.08674 12.2124 4.03634C12.107 3.98594 11.9918 3.95934 11.875 3.95843H3.16667C2.50167 3.93626 2.11692 4.80076 2.57767 5.27893L4.21167 7.09501C1.48948 10.466 0.00320451 14.6672 0 19.0001C0 22.2538 0.82175 25.3651 2.375 28.1565V26.1251C2.375 25.411 2.69167 24.7397 3.24583 24.2884C3.5169 24.0657 3.83414 23.9061 4.17455 23.8212C4.51496 23.7363 4.87 23.7282 5.21392 23.7976Z" fill="white"/>
<path d="M13.7107 3.24583C14.1636 3.79683 14.3425 4.51567 14.2016 5.21392L13.7392 7.52875C17.7102 5.73008 22.4982 6.05783 26.1098 8.52625L24.8036 9.70267C24.3191 10.1112 24.5534 10.9646 25.1772 11.0675L33.0939 12.6508C33.2086 12.6729 33.3268 12.6695 33.44 12.6408C33.5532 12.6121 33.6588 12.5588 33.7491 12.4848C33.8395 12.4107 33.9124 12.3177 33.9628 12.2124C34.0132 12.107 34.0398 11.9918 34.0407 11.875V3.16667C34.0629 2.50325 33.1952 2.11375 32.7186 2.57767L30.9057 4.21167C27.5341 1.48947 23.3324 0.00322577 18.9991 0C15.7437 0 12.6325 0.82175 9.84264 2.375H11.8741C12.5881 2.375 13.2595 2.69167 13.7107 3.24583ZM24.2874 34.7542C24.0647 34.4831 23.9051 34.1659 23.8202 33.8254C23.7353 33.485 23.7272 33.13 23.7966 32.7861L24.2589 30.4713C20.2895 32.2699 15.5015 31.9438 11.8883 29.4738L13.1946 28.2973C13.6791 27.8888 13.4447 27.0354 12.8209 26.9325L4.90423 25.3492C4.78952 25.3271 4.67136 25.3305 4.55813 25.3592C4.4449 25.3879 4.33937 25.4412 4.24902 25.5152C4.15866 25.5893 4.0857 25.6823 4.03531 25.7876C3.98491 25.893 3.95831 26.0082 3.95739 26.125V34.8333C3.93681 35.4983 4.79656 35.8831 5.27948 35.4223L7.09239 33.7883C10.464 36.5105 14.6657 37.9968 18.9991 38C22.2544 38 25.3656 37.1783 28.1555 35.625H26.1241C25.41 35.625 24.7386 35.3083 24.2874 34.7542Z" fill="white"/>
<path d="M33.7894 30.9052C36.5116 27.5343 37.9979 23.333 38.0011 19.0002C38.0011 15.7464 37.1794 12.6352 35.6261 9.84375V11.8752C35.6261 12.5893 35.3094 13.2606 34.7553 13.7118C34.4842 13.9346 34.167 14.0942 33.8266 14.1791C33.4861 14.264 33.1311 14.272 32.7872 14.2027L30.4914 13.7435C31.4137 15.7145 31.8054 17.8922 31.6277 20.0611C31.4499 22.2299 30.7089 24.3148 29.478 26.1093L28.2984 24.8047C27.8868 24.3202 27.0381 24.5561 26.9336 25.1783L25.3503 33.095C25.3282 33.2097 25.3316 33.3279 25.3603 33.4411C25.389 33.5543 25.4423 33.6599 25.5163 33.7502C25.5904 33.8406 25.6834 33.9135 25.7887 33.9639C25.8941 34.0143 26.0093 34.0409 26.1261 34.0418H34.8344C35.4994 34.064 35.8842 33.1995 35.4234 32.7213L33.7894 30.9052Z" fill="white"/>
</g>
<defs>
<clipPath id="clip0_478_8017">
<rect width="38" height="38" fill="white"/>
</clipPath>
</defs>
</svg>
