<svg width="38" height="38" viewBox="0 0 38 38" fill="none" xmlns="http://www.w3.org/2000/svg">
<path d="M17.8867 2.60889C13.5952 2.85522 9.5708 4.52284 6.35854 7.38568L11.3264 12.3536C13.196 10.7971 15.4661 9.85657 17.8867 9.6354V2.60889ZM9.75153 13.9275L4.7837 8.95964C1.91841 12.171 0.248707 16.1957 0.000816406 20.4883H7.02763C7.25028 18.0672 8.19286 15.7969 9.75153 13.9275ZM30.9724 20.4883H37.9992C37.7513 16.1957 36.0817 12.171 33.2163 8.95964L28.2485 13.9275C29.8071 15.7968 30.7497 18.0672 30.9724 20.4883ZM30.9708 22.7148C30.8147 24.4295 30.3254 25.8597 29.7467 27.0069C30.1983 27.7034 30.6471 28.4018 31.0929 29.102C31.9397 30.4329 31.7523 32.1413 30.6369 33.2567C30.3706 33.5235 30.0611 33.7434 29.7215 33.907L30.8785 35.0641C30.9819 35.1678 31.1049 35.25 31.2402 35.3061C31.3755 35.3621 31.5206 35.3909 31.6671 35.3907C31.9525 35.3907 32.2379 35.2818 32.4556 35.0641C35.7898 31.7302 37.7339 27.3799 38 22.7148H30.9708ZM7.02926 22.7148H0C0.266074 27.3799 2.21023 31.7302 5.54436 35.0642C5.76212 35.2819 6.04749 35.3908 6.33286 35.3908C6.61823 35.3908 6.90368 35.2818 7.12144 35.0642L10.4993 31.6861C10.9347 31.2506 10.9347 30.5445 10.4993 30.1089C9.61779 29.2274 7.39738 26.7595 7.02926 22.7148ZM31.6415 7.38568C28.4292 4.52277 24.4048 2.85522 20.1133 2.60889V9.6354C22.5339 9.85657 24.804 10.7971 26.6736 12.3536L31.6415 7.38568ZM21.4737 19.1465C20.1098 17.7826 17.8905 17.7826 16.5266 19.1465C15.1627 20.5104 15.1627 22.7297 16.5266 24.0937C18.2496 25.8167 26.7176 31.2236 27.6776 31.8344C27.8913 31.9704 28.145 32.0294 28.3967 32.0018C28.6485 31.9741 28.8834 31.8615 29.0625 31.6823C29.2416 31.5032 29.3543 31.2684 29.3819 31.0166C29.4095 30.7648 29.3505 30.5112 29.2145 30.2975C28.6036 29.3376 23.1968 20.8695 21.4737 19.1465Z" fill="white"/>
</svg>
