<svg width="38" height="38" viewBox="0 0 38 38" fill="none" xmlns="http://www.w3.org/2000/svg">
<path fill-rule="evenodd" clip-rule="evenodd" d="M22.0365 16.9961C21.4357 16.3954 20.6703 15.9863 19.8371 15.8205C19.0038 15.6548 18.1401 15.7399 17.3552 16.065C16.5703 16.3901 15.8994 16.9407 15.4274 17.6471C14.9554 18.3535 14.7035 19.184 14.7035 20.0336C14.7035 20.8831 14.9554 21.7136 15.4274 22.42C15.8994 23.1264 16.5703 23.677 17.3552 24.0021C18.1401 24.3273 19.0038 24.4123 19.8371 24.2466C20.6703 24.0808 21.4357 23.6717 22.0365 23.071C22.842 22.2654 23.2946 21.1728 23.2946 20.0336C23.2946 18.8943 22.842 17.8017 22.0365 16.9961ZM32.6786 18.5664C32.2388 18.1266 31.6785 17.8271 31.0686 17.7058C30.4586 17.5845 29.8264 17.6467 29.2518 17.8847C28.6772 18.1227 28.1861 18.5258 27.8406 19.0429C27.4951 19.56 27.3107 20.1679 27.3107 20.7898C27.3107 21.4117 27.4951 22.0197 27.8406 22.5368C28.1861 23.0539 28.6772 23.4569 29.2518 23.6949C29.8264 23.9329 30.4586 23.9951 31.0686 23.8738C31.6785 23.7525 32.2388 23.453 32.6786 23.0133C33.2682 22.4235 33.5995 21.6237 33.5995 20.7898C33.5995 19.9559 33.2682 19.1561 32.6786 18.5664ZM29.4871 33.7297C30.7922 33.8578 32.1097 33.7253 33.3631 33.3399C34.6164 32.9544 35.7807 32.3236 36.7882 31.4843L36.7872 31.4832C37.2359 31.0888 37.1821 31.2057 37.1821 30.5971C37.1795 29.3848 36.6967 28.2228 35.8394 27.3655C34.9822 26.5082 33.8202 26.0255 32.6078 26.0229H28.3021C27.8355 26.0223 27.3717 26.0936 26.9269 26.2344C26.8675 26.2531 26.8141 26.287 26.772 26.3329C26.7298 26.3787 26.7006 26.4349 26.687 26.4956C26.6735 26.5564 26.6762 26.6196 26.6948 26.679C26.7135 26.7384 26.7474 26.7919 26.7933 26.834C27.5421 27.5214 28.1401 28.3566 28.5497 29.2869C28.9593 30.2172 29.1714 31.2223 29.1728 32.2387V33.276H29.1711C29.1711 33.3888 29.1427 33.4744 29.2458 33.6007C29.2749 33.6375 29.3113 33.668 29.3527 33.6902C29.3941 33.7124 29.4397 33.7258 29.4865 33.7297H29.4871ZM9.76723 18.5664C9.32748 18.1267 8.76721 17.8272 8.15727 17.7059C7.54732 17.5846 6.9151 17.6469 6.34055 17.8848C5.766 18.1228 5.27492 18.5259 4.92941 19.0429C4.58391 19.56 4.3995 20.168 4.3995 20.7898C4.3995 21.4117 4.58391 22.0197 4.92941 22.5368C5.27492 23.0538 5.766 23.4569 6.34055 23.6948C6.9151 23.9328 7.54732 23.9951 8.15727 23.8738C8.76721 23.7525 9.32748 23.453 9.76723 23.0133C10.3569 22.4235 10.6881 21.6238 10.6881 20.7898C10.6881 19.9559 10.3569 19.1561 9.76723 18.5664ZM10.609 33.5459L10.134 33.1302C10.0972 33.0974 10.0679 33.0571 10.0481 33.0119C10.0282 32.9668 10.0183 32.9179 10.019 32.8686V32.2384C10.0242 30.6049 10.6754 29.0397 11.8305 27.8846C12.9857 26.7295 14.5508 26.0782 16.1844 26.0731H21.8144C22.2195 26.0729 22.6237 26.1129 23.0209 26.1924L23.0214 26.1902C24.4174 26.4743 25.6727 27.231 26.5759 28.3327C27.4791 29.4344 27.9749 30.8138 27.9798 32.2384V32.8627C27.9805 32.9131 27.9702 32.9631 27.9495 33.009C27.9287 33.055 27.8982 33.0958 27.8599 33.1287L27.3975 33.5377L27.3985 33.5388L27.3351 33.5914C22.6688 37.4274 15.9558 37.5917 11.1208 33.9512L10.6086 33.5456L10.609 33.5459ZM11.0707 26.2338C10.9136 26.1834 10.7538 26.1418 10.592 26.1092L10.5916 26.1114C10.2969 26.0525 9.99705 26.0228 9.6965 26.0229H5.39062C4.17868 26.0269 3.01752 26.5101 2.16055 27.3671C1.30359 28.224 0.820397 29.3852 0.816445 30.5971V30.9804C0.815697 31.0303 0.825841 31.0798 0.84617 31.1254C0.866499 31.171 0.896525 31.2117 0.934156 31.2445C1.95551 32.1614 3.15641 32.8559 4.46056 33.2838C5.76472 33.7117 7.14362 33.8637 8.50966 33.7301C8.55638 33.7258 8.60175 33.7121 8.64315 33.6901C8.68454 33.668 8.72113 33.6379 8.75078 33.6015C8.78044 33.5652 8.80256 33.5233 8.81586 33.4783C8.82917 33.4333 8.83339 33.3861 8.82828 33.3395L8.82494 32.2387C8.82557 31.2222 9.03722 30.2169 9.44649 29.2864C9.85577 28.3559 10.4538 27.5205 11.2026 26.8331C11.2484 26.791 11.2824 26.7377 11.3011 26.6784C11.3198 26.6191 11.3226 26.556 11.3092 26.4953C11.2957 26.4345 11.2666 26.3784 11.2246 26.3326C11.1827 26.2867 11.1294 26.2526 11.0701 26.2338H11.0707ZM10.7009 17.1342C10.685 17.1895 10.6559 17.2401 10.6161 17.2817C10.5763 17.3232 10.5269 17.3544 10.4724 17.3726C10.4178 17.3908 10.3596 17.3954 10.3028 17.386C10.2461 17.3767 10.1924 17.3536 10.1466 17.3189C9.38542 16.7484 8.45793 16.4439 7.50678 16.4521C6.55564 16.4603 5.63353 16.7808 4.88235 17.3643C4.13116 17.9478 3.59251 18.7619 3.34927 19.6815C3.10603 20.601 3.17168 21.575 3.53612 22.4536C3.55943 22.5074 3.56869 22.5662 3.56302 22.6246C3.55734 22.6829 3.53692 22.7388 3.50368 22.7871C3.36927 22.9887 3.1527 22.9452 2.8916 22.9452C2.3552 22.9432 1.84134 22.7292 1.46206 22.3499C1.08277 21.9706 0.868814 21.4568 0.866839 20.9204V18.1877C0.868814 17.6513 1.08277 17.1374 1.46206 16.7581C1.84134 16.3788 2.3552 16.1649 2.8916 16.1629H6.65746C6.79078 16.1628 6.92025 16.1182 7.02525 16.0361C7.13026 15.9539 7.20476 15.839 7.23689 15.7096C7.33552 15.3107 7.78989 14.2938 7.98219 13.9179C8.03934 13.806 8.05958 13.6789 8.04 13.5548C8.02043 13.4307 7.96205 13.316 7.87324 13.2271L7.87494 13.2255L5.21109 10.5619C4.83325 10.1812 4.62122 9.66658 4.62122 9.13019C4.62122 8.5938 4.83325 8.07916 5.21109 7.69844L7.14337 5.76608C7.52413 5.38827 8.03877 5.17627 8.57516 5.17627C9.11155 5.17627 9.6262 5.38827 10.007 5.76608L12.6704 8.42957C12.7648 8.52386 12.888 8.58387 13.0204 8.60001C13.1528 8.61615 13.2868 8.5875 13.401 8.51863C13.4091 8.51366 13.4158 8.50972 13.4247 8.50542C13.995 8.21899 14.5861 7.97605 15.1929 7.77867C15.3129 7.74015 15.4176 7.66454 15.4918 7.56273C15.5661 7.46093 15.6061 7.33817 15.6062 7.21216H15.6079V3.44615C15.6099 2.90975 15.8238 2.39589 16.2031 2.0166C16.5824 1.63732 17.0963 1.42336 17.6327 1.42139H20.3657C20.9021 1.42336 21.4159 1.63732 21.7952 2.0166C22.1745 2.39589 22.3885 2.90975 22.3905 3.44615V7.21216C22.3905 7.34549 22.4352 7.47497 22.5173 7.57998C22.5995 7.68499 22.7144 7.75948 22.8438 7.79158C23.2427 7.89022 24.2595 8.34466 24.6355 8.53689C24.7474 8.59405 24.8745 8.6143 24.9986 8.59474C25.1227 8.57518 25.2374 8.51681 25.3263 8.42801L25.3279 8.42964L27.9911 5.76608C28.3719 5.38827 28.8865 5.17627 29.4229 5.17627C29.9593 5.17627 30.4739 5.38827 30.8547 5.76608L32.787 7.69844C33.1648 8.07917 33.3769 8.59383 33.3769 9.13023C33.3769 9.66663 33.1648 10.1813 32.787 10.562L30.1235 13.2258C30.0292 13.3201 29.9692 13.4433 29.953 13.5757C29.9369 13.7081 29.9655 13.8421 30.0344 13.9563C30.0393 13.9644 30.0433 13.9716 30.0476 13.98C30.334 14.5503 30.577 15.1413 30.7743 15.7482C30.8129 15.8682 30.8885 15.9729 30.9903 16.0471C31.0921 16.1214 31.2149 16.1615 31.3409 16.1615V16.1632H35.107C35.6433 16.1652 36.1571 16.3792 36.5364 16.7584C36.9157 17.1376 37.1296 17.6514 37.1317 18.1878V20.9204C37.1297 21.4568 36.9157 21.9707 36.5364 22.35C36.1572 22.7292 35.6433 22.9432 35.1069 22.9452H34.7902C34.7316 22.9454 34.674 22.9311 34.6223 22.9036C34.5707 22.876 34.5267 22.8362 34.4942 22.7875C34.4617 22.7388 34.4418 22.6828 34.4363 22.6246C34.4307 22.5663 34.4397 22.5076 34.4623 22.4536C34.8267 21.5751 34.8924 20.6011 34.6491 19.6815C34.4059 18.762 33.8673 17.9479 33.1161 17.3644C32.3649 16.7809 31.4428 16.4604 30.4917 16.4522C29.5406 16.4439 28.6131 16.7485 27.852 17.3189C27.8061 17.3536 27.7524 17.3767 27.6957 17.386C27.6389 17.3954 27.5807 17.3907 27.5261 17.3726C27.4715 17.3544 27.4222 17.3232 27.3824 17.2817C27.3425 17.2401 27.3134 17.1895 27.2975 17.1342C26.7739 15.3386 25.6819 13.7613 24.1856 12.639C22.6893 11.5168 20.8693 10.9101 18.9989 10.9101C17.1285 10.9101 15.3086 11.5168 13.8122 12.639C12.3159 13.7613 11.224 15.3386 10.7003 17.1342H10.7009Z" fill="white"/>
</svg>
