<svg width="38" height="38" viewBox="0 0 38 38" fill="none" xmlns="http://www.w3.org/2000/svg">
<path d="M13.3211 24.6525C12.3764 25.3913 11.6123 26.3356 11.0869 27.4138C10.5616 28.492 10.2887 29.6756 10.2891 30.875V33.25H5.53906C4.2249 33.25 3.16406 32.1892 3.16406 30.875V29.2917C3.16406 26.2279 5.64198 23.75 8.70573 23.75H10.2891C11.4132 23.75 12.4503 24.0825 13.3211 24.6525Z" fill="white"/>
<path d="M28.5 23.75C30.4675 23.75 32.0625 22.155 32.0625 20.1875C32.0625 18.22 30.4675 16.625 28.5 16.625C26.5325 16.625 24.9375 18.22 24.9375 20.1875C24.9375 22.155 26.5325 23.75 28.5 23.75Z" fill="white"/>
<path d="M9.5 23.75C11.4675 23.75 13.0625 22.155 13.0625 20.1875C13.0625 18.22 11.4675 16.625 9.5 16.625C7.53249 16.625 5.9375 18.22 5.9375 20.1875C5.9375 22.155 7.53249 23.75 9.5 23.75Z" fill="white"/>
<path d="M34.829 29.2917V30.875C34.829 32.1892 33.7681 33.25 32.454 33.25H27.704V30.875C27.704 28.3496 26.5165 26.1012 24.6719 24.6525C25.5427 24.0825 26.5798 23.75 27.704 23.75H29.2873C32.351 23.75 34.829 26.2279 34.829 29.2917Z" fill="white"/>
<path d="M18.9948 24.5418C21.3995 24.5418 23.349 22.5924 23.349 20.1877C23.349 17.7829 21.3995 15.8335 18.9948 15.8335C16.5901 15.8335 14.6406 17.7829 14.6406 20.1877C14.6406 22.5924 16.5901 24.5418 18.9948 24.5418Z" fill="white"/>
<path d="M19.7885 24.5417H18.2051C14.7131 24.5417 11.8718 27.383 11.8718 30.875V33.25C11.8718 34.5594 12.9374 35.625 14.2468 35.625H23.7468C25.0562 35.625 26.1218 34.5594 26.1218 33.25V30.875C26.1218 27.383 23.2805 24.5417 19.7885 24.5417ZM30.476 13.2082L28.5657 13.8874C28.4404 13.932 28.3061 13.9453 28.1744 13.9263C28.0428 13.9073 27.9178 13.8565 27.8102 13.7783C27.7026 13.7001 27.6157 13.5969 27.557 13.4775C27.4982 13.3582 27.4695 13.2263 27.4732 13.0934L27.5286 11.0667L26.292 9.45962C26.211 9.35416 26.1569 9.23056 26.1343 9.0995C26.1117 8.96844 26.1214 8.83386 26.1625 8.70737C26.2035 8.58088 26.2748 8.46629 26.37 8.3735C26.4653 8.2807 26.5817 8.21248 26.7092 8.17474L28.6544 7.60157L29.8007 5.92878C29.8759 5.81906 29.9766 5.7293 30.0943 5.66729C30.212 5.60527 30.343 5.57286 30.476 5.57286C30.609 5.57286 30.74 5.60527 30.8576 5.66729C30.9753 5.7293 31.0761 5.81906 31.1513 5.92878L32.2976 7.60157L34.2427 8.17474C34.7945 8.33703 35.0106 9.00362 34.6599 9.45962L33.4233 11.0667L33.4788 13.0934C33.4823 13.2263 33.4534 13.358 33.3946 13.4772C33.3358 13.5965 33.2489 13.6996 33.1414 13.7778C33.0339 13.856 32.9089 13.9068 32.7774 13.9259C32.6458 13.945 32.5116 13.9318 32.3863 13.8874L30.476 13.2082ZM7.51764 13.2082L5.60735 13.8874C5.48203 13.932 5.34774 13.9453 5.2161 13.9263C5.08446 13.9073 4.95944 13.8565 4.85185 13.7783C4.74426 13.7001 4.65734 13.5969 4.59862 13.4775C4.5399 13.3582 4.51115 13.2263 4.51485 13.0934L4.57027 11.0667L3.33368 9.45962C3.25266 9.35416 3.19853 9.23056 3.17595 9.0995C3.15338 8.96844 3.16305 8.83386 3.20412 8.70737C3.24519 8.58088 3.31643 8.46629 3.41169 8.3735C3.50695 8.2807 3.62337 8.21248 3.75089 8.17474L5.69602 7.60157L6.84235 5.92878C6.91752 5.81906 7.0183 5.7293 7.13597 5.66729C7.25363 5.60527 7.38463 5.57286 7.51764 5.57286C7.65065 5.57286 7.78165 5.60527 7.89931 5.66729C8.01698 5.7293 8.11776 5.81906 8.19293 5.92878L9.33927 7.60157L11.2844 8.17474C11.8362 8.33703 12.0523 9.00362 11.7016 9.45962L10.465 11.0667L10.5204 13.0934C10.5239 13.2263 10.4951 13.358 10.4363 13.4772C10.3775 13.5965 10.2906 13.6996 10.1831 13.7778C10.0755 13.856 9.9506 13.9068 9.81904 13.9259C9.68748 13.945 9.55325 13.9318 9.42793 13.8874L7.51764 13.2082ZM18.9968 11.4269L16.7318 12.232C16.5833 12.2848 16.4241 12.3006 16.2681 12.2781C16.112 12.2555 15.9638 12.1953 15.8363 12.1026C15.7087 12.0099 15.6057 11.8875 15.5361 11.7461C15.4665 11.6046 15.4323 11.4483 15.4367 11.2907L15.5024 8.88803L14.0362 6.98249C13.9402 6.85746 13.876 6.71093 13.8493 6.55555C13.8225 6.40018 13.834 6.24063 13.8827 6.09068C13.9314 5.94074 14.0159 5.8049 14.1289 5.6949C14.2418 5.5849 14.3798 5.50405 14.531 5.45932L16.8371 4.77928L18.1964 2.79616C18.2856 2.66602 18.4051 2.55957 18.5446 2.48602C18.6841 2.41246 18.8395 2.37402 18.9972 2.37402C19.1549 2.37402 19.3103 2.41246 19.4498 2.48602C19.5893 2.55957 19.7088 2.66602 19.798 2.79616L21.1573 4.77928L23.4634 5.45932C23.6146 5.50405 23.7526 5.5849 23.8655 5.6949C23.9785 5.8049 24.063 5.94074 24.1117 6.09068C24.1604 6.24063 24.1719 6.40018 24.1451 6.55555C24.1184 6.71093 24.0542 6.85746 23.9582 6.98249L22.492 8.88803L22.5577 11.2907C22.5621 11.4483 22.5279 11.6046 22.4583 11.7461C22.3887 11.8875 22.2857 12.0099 22.1581 12.1026C22.0306 12.1953 21.8824 12.2555 21.7263 12.2781C21.5703 12.3006 21.4111 12.2848 21.2626 12.232L18.9968 11.4269Z" fill="white"/>
</svg>
