<svg width="33" height="39" viewBox="0 0 33 39" fill="none" xmlns="http://www.w3.org/2000/svg">
<path d="M18.4482 14.7827C20.7085 15.829 22.4293 17.3688 23.3953 18.989C24.3633 20.6127 24.5481 22.2623 23.8693 23.6015C23.1904 24.9407 21.7214 25.8248 19.788 26.1055C17.8589 26.3855 15.5277 26.0499 13.2673 25.0037C11.007 23.9574 9.28619 22.4176 8.32022 20.7974C7.35217 19.1737 7.16742 17.5241 7.84622 16.1849C8.52504 14.8457 9.99409 13.9616 11.9274 13.6809C13.8566 13.4008 16.1878 13.7365 18.4482 14.7827Z" fill="#8CBE5A" stroke="#04B36F"/>
<ellipse cx="5.67806" cy="4.67209" rx="5.67806" ry="4.67209" transform="matrix(0.9075 0.420052 -0.452118 0.891958 10.2441 12.1484)" fill="#8CBE5A"/>
<mask id="path-3-inside-1_478_8034" fill="white">
<path d="M20.0092 21.5733C20.0059 21.58 20.0033 21.5871 19.9999 21.5938C19.9967 21.6002 19.9926 21.6062 19.9893 21.6125L19.8352 21.9165L19.7936 21.8972C18.958 22.8604 16.8466 22.9204 14.8076 21.9768C12.7686 21.033 11.5083 19.4123 11.7812 18.1886L11.7377 18.1685L15.3339 11.0737L23.4314 14.8218L20.0092 21.5733Z"/>
</mask>
<path d="M20.0092 21.5733C20.0059 21.58 20.0033 21.5871 19.9999 21.5938C19.9967 21.6002 19.9926 21.6062 19.9893 21.6125L19.8352 21.9165L19.7936 21.8972C18.958 22.8604 16.8466 22.9204 14.8076 21.9768C12.7686 21.033 11.5083 19.4123 11.7812 18.1886L11.7377 18.1685L15.3339 11.0737L23.4314 14.8218L20.0092 21.5733Z" fill="#0ACF83"/>
<path d="M20.0092 21.5733L19.1017 21.1533L19.0982 21.1601L19.0949 21.167L20.0092 21.5733ZM19.9999 21.5938L20.9074 22.0138L20.9074 22.0138L19.9999 21.5938ZM19.9893 21.6125L19.0885 21.1795L19.0851 21.1859L19.0818 21.1925L19.9893 21.6125ZM19.8352 21.9165L19.3831 22.8085L20.2906 23.2285L20.7427 22.3366L19.8352 21.9165ZM19.7936 21.8972L20.2457 21.0053L19.5392 20.6782L19.0246 21.2713L19.7936 21.8972ZM14.8076 21.9768L14.3555 22.8688L14.3556 22.8688L14.8076 21.9768ZM11.7812 18.1886L12.7718 18.3771L12.9398 17.6236L12.2333 17.2966L11.7812 18.1886ZM11.7377 18.1685L10.8302 17.7484L10.3781 18.6404L11.2856 19.0604L11.7377 18.1685ZM15.3339 11.0737L15.7861 10.1818L14.8786 9.76172L14.4264 10.6537L15.3339 11.0737ZM23.4314 14.8218L24.3389 15.2418L24.791 14.3499L23.8835 13.9298L23.4314 14.8218ZM20.0092 21.5733L19.0949 21.167C19.0869 21.1833 19.0808 21.1968 19.0772 21.2051C19.0753 21.2093 19.0737 21.2129 19.0728 21.2151C19.0723 21.2162 19.0719 21.2172 19.0716 21.2178C19.0711 21.2188 19.0713 21.2184 19.0711 21.2189C19.0709 21.2194 19.0714 21.2183 19.0721 21.2167C19.0728 21.215 19.0741 21.2121 19.0758 21.2083C19.0791 21.2011 19.0848 21.1888 19.0924 21.1737L19.9999 21.5938L20.9074 22.0138C20.9168 21.9953 20.924 21.9797 20.9289 21.969C20.9335 21.9588 20.9372 21.9503 20.9381 21.9482C20.9382 21.9478 20.9384 21.9475 20.9385 21.9473C20.9386 21.947 20.9386 21.9469 20.9387 21.9468C20.9388 21.9465 20.9388 21.9466 20.9386 21.9469C20.9384 21.9474 20.9376 21.9492 20.9365 21.9517C20.9343 21.9566 20.9298 21.9667 20.9235 21.9796L20.0092 21.5733ZM19.9999 21.5938L19.0924 21.1737C19.1006 21.1575 19.1077 21.1449 19.1119 21.1374C19.114 21.1336 19.1158 21.1306 19.1168 21.1289C19.1177 21.1273 19.1184 21.1262 19.1181 21.1266C19.1181 21.1267 19.118 21.1268 19.1179 21.127C19.1178 21.1271 19.1176 21.1274 19.1175 21.1277C19.1171 21.1283 19.1165 21.1293 19.1159 21.1304C19.1146 21.1326 19.1125 21.1361 19.1101 21.1404C19.1053 21.1487 19.0975 21.1624 19.0885 21.1795L19.9893 21.6125L20.8901 22.0456C20.8828 22.0594 20.8768 22.07 20.8738 22.0753C20.8722 22.078 20.8711 22.0799 20.8707 22.0806C20.8706 22.0808 20.8701 22.0816 20.8712 22.0797C20.8722 22.078 20.8772 22.0696 20.8829 22.0596C20.8889 22.049 20.8976 22.0332 20.9074 22.0138L19.9999 21.5938ZM19.9893 21.6125L19.0818 21.1925L18.9277 21.4965L19.8352 21.9165L20.7427 22.3366L20.8968 22.0326L19.9893 21.6125ZM19.8352 21.9165L20.2873 21.0246L20.2457 21.0053L19.7936 21.8972L19.3415 22.7892L19.3831 22.8085L19.8352 21.9165ZM19.7936 21.8972L19.0246 21.2713C18.8793 21.4388 18.4933 21.6518 17.7537 21.6664C17.0447 21.6803 16.1603 21.5017 15.2597 21.0849L14.8076 21.9768L14.3556 22.8688C15.4939 23.3956 16.6847 23.6587 17.75 23.6378C18.7847 23.6174 19.8723 23.3188 20.5625 22.5232L19.7936 21.8972ZM14.8076 21.9768L15.2598 21.0849C14.3591 20.668 13.6639 20.1155 13.2356 19.5751C12.7888 19.0113 12.7244 18.5898 12.7718 18.3771L11.7812 18.1886L10.7905 18C10.5651 19.011 10.9944 20.0117 11.6193 20.8002C12.2627 21.6121 13.2172 22.3419 14.3555 22.8688L14.8076 21.9768ZM11.7812 18.1886L12.2333 17.2966L12.1899 17.2765L11.7377 18.1685L11.2856 19.0604L11.3291 19.0805L11.7812 18.1886ZM11.7377 18.1685L12.6452 18.5885L16.2414 11.4938L15.3339 11.0737L14.4264 10.6537L10.8302 17.7484L11.7377 18.1685ZM15.3339 11.0737L14.8818 11.9657L22.9793 15.7137L23.4314 14.8218L23.8835 13.9298L15.7861 10.1818L15.3339 11.0737ZM23.4314 14.8218L22.5239 14.4017L19.1017 21.1533L20.0092 21.5733L20.9167 21.9934L24.3389 15.2418L23.4314 14.8218Z" fill="#04B36F" mask="url(#path-3-inside-1_478_8034)"/>
<rect width="1.6223" height="5.45078" transform="matrix(0.9075 0.420052 -0.452118 0.891958 15.7167 12.1094)" fill="#4BF1B1"/>
<path d="M23.73 4.36505C25.5713 5.21732 26.9386 6.53765 27.6728 7.96234C28.4068 9.38661 28.4982 10.8863 27.8553 12.1549C27.2122 13.4235 25.9238 14.2854 24.2992 14.6181C22.6742 14.9506 20.7423 14.7439 18.9011 13.8918C17.0598 13.0395 15.6917 11.7188 14.9574 10.2941C14.2235 8.86977 14.1333 7.36959 14.7763 6.10105C15.4193 4.83271 16.7068 3.97101 18.3311 3.63835C19.9561 3.30566 21.8887 3.51277 23.73 4.36505Z" fill="#8CBE5A" stroke="#04B36F"/>
<ellipse cx="3.24461" cy="2.72539" rx="3.24461" ry="2.72539" transform="matrix(0.9075 0.420052 -0.452118 0.891958 17.3808 3.44727)" fill="#9FDB62"/>
<rect width="1.6223" height="10.1229" transform="matrix(0.9075 0.420052 -0.452118 0.891958 11.9394 24.939)" fill="white"/>
</svg>
