<svg width="32" height="32" viewBox="0 0 32 32" fill="none" xmlns="http://www.w3.org/2000/svg">
<g clip-path="url(#clip0_478_8047)">
<path d="M20 26H12C11.7348 26 11.4804 26.1054 11.2929 26.2929C11.1054 26.4804 11 26.7348 11 27V29C11 30.654 12.346 32 14 32H18C19.654 32 21 30.654 21 29V27C21 26.7348 20.8946 26.4804 20.7071 26.2929C20.5196 26.1054 20.2652 26 20 26Z" fill="white"/>
<path d="M16 15.418C17.8877 15.418 19.418 13.8877 19.418 12C19.418 10.1123 17.8877 8.58203 16 8.58203C14.1123 8.58203 12.582 10.1123 12.582 12C12.582 13.8877 14.1123 15.418 16 15.418Z" fill="white"/>
<path d="M27.89 10.3398C27.18 5.00984 22.77 0.699838 17.42 0.0798379C13.99 -0.320162 10.56 0.769838 8.01 3.03984C6.74891 4.1672 5.7399 5.54798 5.04891 7.09194C4.35791 8.63591 4.00049 10.3083 4 11.9998C4 16.4998 6.48 20.5798 10.47 22.6498C10.79 22.8198 11 23.1598 11 23.5298V24.1798C11.31 24.0598 11.65 23.9998 12 23.9998H20C20.35 23.9998 20.69 24.0598 21 24.1798V23.5298C21 23.1598 21.2 22.8198 21.53 22.6498C26.08 20.2898 28.57 15.4598 27.89 10.3398ZM22 12.9998H21.322C21.1842 13.737 20.894 14.4373 20.47 15.0558L20.95 15.5358C21.0454 15.6282 21.1215 15.7386 21.1739 15.8606C21.2262 15.9826 21.2537 16.1139 21.2547 16.2466C21.2558 16.3794 21.2304 16.5111 21.18 16.6339C21.1297 16.7568 21.0553 16.8684 20.9614 16.9622C20.8674 17.0561 20.7557 17.1302 20.6328 17.1804C20.5099 17.2306 20.3782 17.2558 20.2454 17.2546C20.1126 17.2533 19.9814 17.2257 19.8594 17.1732C19.7375 17.1207 19.6272 17.0444 19.535 16.9488L19.055 16.4688C18.4368 16.8931 17.7369 17.1836 17 17.3218V17.9998C17 18.2651 16.8946 18.5194 16.7071 18.7069C16.5196 18.8945 16.2652 18.9998 16 18.9998C15.7348 18.9998 15.4804 18.8945 15.2929 18.7069C15.1054 18.5194 15 18.2651 15 17.9998V17.3218C14.2628 17.184 13.5626 16.8939 12.944 16.4698L12.464 16.9498C12.3714 17.0429 12.2613 17.1167 12.14 17.1671C12.0188 17.2174 11.8888 17.2434 11.7575 17.2434C11.6262 17.2434 11.4962 17.2174 11.375 17.1671C11.2537 17.1167 11.1436 17.0429 11.051 16.9498C10.958 16.857 10.8843 16.7467 10.8339 16.6253C10.7836 16.5039 10.7577 16.3738 10.7577 16.2423C10.7577 16.1109 10.7836 15.9808 10.8339 15.8594C10.8843 15.738 10.958 15.6277 11.051 15.5348L11.531 15.0548C11.1064 14.4367 10.8155 13.7368 10.677 12.9998H10C9.73478 12.9998 9.48043 12.8945 9.29289 12.7069C9.10536 12.5194 9 12.2651 9 11.9998C9 11.7346 9.10536 11.4803 9.29289 11.2927C9.48043 11.1052 9.73478 10.9998 10 10.9998H10.678C10.819 10.2498 11.113 9.55184 11.53 8.94384L11.05 8.46384C10.9546 8.37152 10.8785 8.26112 10.8261 8.13908C10.7738 8.01704 10.7463 7.8858 10.7453 7.75303C10.7442 7.62025 10.7696 7.48859 10.82 7.36573C10.8703 7.24287 10.9447 7.13127 11.0386 7.03744C11.1326 6.94362 11.2443 6.86945 11.3672 6.81925C11.4901 6.76906 11.6218 6.74385 11.7546 6.7451C11.8874 6.74634 12.0186 6.77402 12.1406 6.82651C12.2625 6.87901 12.3728 6.95526 12.465 7.05084L12.945 7.53084C13.5631 7.10624 14.263 6.81537 15 6.67684V5.99984C15 5.73462 15.1054 5.48027 15.2929 5.29273C15.4804 5.10519 15.7348 4.99984 16 4.99984C16.2652 4.99984 16.5196 5.10519 16.7071 5.29273C16.8946 5.48027 17 5.73462 17 5.99984V6.67784C17.751 6.81884 18.448 7.11284 19.056 7.52984L19.536 7.04984C19.6283 6.9544 19.7387 6.87829 19.8608 6.82597C19.9828 6.77365 20.114 6.74616 20.2468 6.7451C20.3796 6.74404 20.5113 6.76944 20.6341 6.8198C20.757 6.87017 20.8686 6.9445 20.9624 7.03846C21.0562 7.13242 21.1304 7.24412 21.1806 7.36705C21.2308 7.48998 21.256 7.62168 21.2547 7.75446C21.2535 7.88724 21.2258 8.01843 21.1733 8.1404C21.1208 8.26237 21.0446 8.37266 20.949 8.46484L20.47 8.94484C20.887 9.55184 21.18 10.2488 21.322 10.9998H22C22.2652 10.9998 22.5196 11.1052 22.7071 11.2927C22.8946 11.4803 23 11.7346 23 11.9998C23 12.2651 22.8946 12.5194 22.7071 12.7069C22.5196 12.8945 22.2652 12.9998 22 12.9998ZM2 12.9998H1C0.734784 12.9998 0.48043 12.8945 0.292893 12.7069C0.105357 12.5194 0 12.2651 0 11.9998C0 11.7346 0.105357 11.4803 0.292893 11.2927C0.48043 11.1052 0.734784 10.9998 1 10.9998H2C2.26522 10.9998 2.51957 11.1052 2.70711 11.2927C2.89464 11.4803 3 11.7346 3 11.9998C3 12.2651 2.89464 12.5194 2.70711 12.7069C2.51957 12.8945 2.26522 12.9998 2 12.9998ZM6.1 3.09984C5.9689 3.09997 5.83907 3.07425 5.71792 3.02415C5.59678 2.97404 5.4867 2.90054 5.394 2.80784L4.687 2.09984C4.58781 2.00854 4.5081 1.89814 4.45267 1.77525C4.39723 1.65237 4.36722 1.51954 4.36443 1.38476C4.36163 1.24998 4.38612 1.11603 4.43642 0.990957C4.48672 0.865882 4.56178 0.752268 4.65711 0.656944C4.75243 0.56162 4.86604 0.486553 4.99112 0.436257C5.11619 0.385961 5.25015 0.361473 5.38493 0.364265C5.51971 0.367058 5.65253 0.397073 5.77541 0.452506C5.8983 0.50794 6.00871 0.587647 6.1 0.686838L6.807 1.39384C6.94647 1.53374 7.04137 1.71182 7.07974 1.9056C7.11811 2.09938 7.09823 2.30019 7.0226 2.48268C6.94697 2.66518 6.81899 2.82119 6.65479 2.93102C6.49059 3.04086 6.29754 3.0996 6.1 3.09984ZM5.394 23.6058C5.19625 23.6058 5.00295 23.5471 4.83854 23.4372C4.67413 23.3274 4.54599 23.1712 4.47032 22.9885C4.39465 22.8058 4.37485 22.6048 4.41342 22.4108C4.45198 22.2169 4.54719 22.0387 4.687 21.8988L5.394 21.1918C5.48625 21.0963 5.59659 21.0201 5.7186 20.9677C5.8406 20.9153 5.97182 20.8877 6.1046 20.8866C6.23738 20.8854 6.36906 20.9107 6.49195 20.961C6.61485 21.0113 6.7265 21.0856 6.82039 21.1794C6.91429 21.2733 6.98854 21.385 7.03882 21.5079C7.0891 21.6308 7.1144 21.7625 7.11325 21.8952C7.1121 22.028 7.08451 22.1592 7.0321 22.2812C6.97969 22.4032 6.90351 22.5136 6.808 22.6058L6.101 23.3128C6.00826 23.4058 5.89806 23.4796 5.77673 23.5299C5.6554 23.5802 5.52534 23.606 5.394 23.6058ZM31 12.9998H30C29.7348 12.9998 29.4804 12.8945 29.2929 12.7069C29.1054 12.5194 29 12.2651 29 11.9998C29 11.7346 29.1054 11.4803 29.2929 11.2927C29.4804 11.1052 29.7348 10.9998 30 10.9998H31C31.2652 10.9998 31.5196 11.1052 31.7071 11.2927C31.8946 11.4803 32 11.7346 32 11.9998C32 12.2651 31.8946 12.5194 31.7071 12.7069C31.5196 12.8945 31.2652 12.9998 31 12.9998ZM25.9 3.09984C25.7022 3.0998 25.509 3.04112 25.3445 2.93124C25.1801 2.82136 25.052 2.66519 24.9763 2.48249C24.9007 2.29979 24.8808 2.09876 24.9194 1.90481C24.958 1.71085 25.0532 1.53269 25.193 1.39284L25.899 0.686838C25.9912 0.591265 26.1015 0.515007 26.2234 0.462513C26.3454 0.41002 26.4766 0.382342 26.6094 0.381095C26.7422 0.379849 26.8739 0.405058 26.9968 0.455252C27.1197 0.505445 27.2314 0.579619 27.3254 0.673445C27.4193 0.76727 27.4937 0.878868 27.544 1.00173C27.5944 1.12459 27.6198 1.25625 27.6187 1.38903C27.6177 1.52181 27.5902 1.65304 27.5379 1.77508C27.4855 1.89712 27.4094 2.00752 27.314 2.09984L26.607 2.80684C26.5143 2.89984 26.4041 2.97359 26.2827 3.02388C26.1614 3.07416 26.0313 3.09997 25.9 3.09984ZM26.606 23.6058C26.4747 23.606 26.3446 23.5802 26.2233 23.5299C26.1019 23.4796 25.9917 23.4058 25.899 23.3128L25.192 22.6058C25.0992 22.5129 25.0255 22.4026 24.9753 22.2813C24.9251 22.1599 24.8993 22.0298 24.8993 21.8985C24.8993 21.7671 24.9253 21.6371 24.9756 21.5158C25.0259 21.3944 25.0996 21.2842 25.1925 21.1913C25.2854 21.0985 25.3957 21.0249 25.5171 20.9746C25.6384 20.9244 25.7685 20.8986 25.8999 20.8986C26.0312 20.8987 26.1613 20.9246 26.2826 20.9749C26.4039 21.0252 26.5142 21.0989 26.607 21.1918L27.314 21.8988C27.4538 22.0387 27.549 22.2169 27.5876 22.4108C27.6262 22.6048 27.6063 22.8058 27.5307 22.9885C27.455 23.1712 27.3269 23.3274 27.1625 23.4372C26.998 23.5471 26.8038 23.6058 26.606 23.6058Z" fill="white"/>
</g>
<defs>
<clipPath id="clip0_478_8047">
<rect width="32" height="32" fill="white"/>
</clipPath>
</defs>
</svg>
