<svg width="32" height="32" viewBox="0 0 32 32" fill="none" xmlns="http://www.w3.org/2000/svg">
<path fill-rule="evenodd" clip-rule="evenodd" d="M24.9912 22.7523C23.0961 22.7523 22.1453 25.0482 23.4852 26.3882C23.7321 26.635 23.7321 27.0354 23.4852 27.2822L22.1243 28.6431C21.8774 28.8899 21.4771 28.8899 21.2302 28.6431C19.8902 27.3031 17.5944 28.254 17.5944 30.1491C17.5944 30.4983 17.3113 30.7812 16.9622 30.7812H15.0377C14.6886 30.7812 14.4056 30.4983 14.4056 30.1491C14.4056 28.2517 12.1114 27.3015 10.7697 28.6431C10.5229 28.8899 10.1225 28.8899 9.87569 28.6431L8.51481 27.2822C8.26794 27.0354 8.26794 26.635 8.51481 26.3882C9.85475 25.0482 8.90387 22.7523 7.00875 22.7523C6.6595 22.7523 6.37663 22.4692 6.37663 22.1201V21.4703C6.37663 21.2982 6.517 21.1578 6.68913 21.1578H10.9949C11.0745 21.1577 11.1511 21.1881 11.2091 21.2426C11.267 21.2971 11.302 21.3717 11.3068 21.4511C11.4582 23.9115 13.5016 25.8602 16.0001 25.8602C18.4985 25.8602 20.5419 23.9115 20.6933 21.4511C20.6981 21.3717 20.7331 21.2971 20.791 21.2426C20.849 21.188 20.9256 21.1577 21.0052 21.1578H25.311C25.4831 21.1578 25.6235 21.2982 25.6235 21.4703V22.1201C25.6234 22.4692 25.3405 22.7523 24.9912 22.7523ZM3.51612 3.25519H7.61831V1.40625C7.61831 1.303 7.53406 1.21875 7.43081 1.21875H3.70362C3.60037 1.21875 3.51612 1.30294 3.51612 1.40625V3.25519ZM1.47094 17.3213H30.5291C30.7884 17.3213 31 17.5329 31 17.7922V18.8957C31 19.1551 30.7884 19.3666 30.5291 19.3666H1.47094C1.21156 19.3666 1 19.1551 1 18.8957V17.7922C1 17.5329 1.21156 17.3213 1.47094 17.3213ZM13.4496 21.5131C13.6226 22.7669 14.6986 23.7326 16 23.7326C17.3014 23.7326 18.3773 22.7669 18.5504 21.5131C18.5567 21.4688 18.5534 21.4237 18.5407 21.3808C18.528 21.3379 18.5063 21.2983 18.4769 21.2646C18.4475 21.2309 18.4112 21.2039 18.3705 21.1855C18.3297 21.1671 18.2855 21.1576 18.2408 21.1578H13.7592C13.7145 21.1576 13.6703 21.1671 13.6296 21.1855C13.5888 21.2039 13.5526 21.2309 13.5232 21.2646C13.4938 21.2983 13.472 21.338 13.4593 21.3808C13.4466 21.4237 13.4433 21.4688 13.4496 21.5131ZM10.5328 10.2604H12.534C12.5839 10.2605 12.6318 10.2804 12.6671 10.3157C12.7024 10.351 12.7223 10.3988 12.7224 10.4487V12.45C12.7223 12.4999 12.7024 12.5478 12.6671 12.5831C12.6318 12.6184 12.5839 12.6383 12.534 12.6384H10.5328C10.4828 12.6383 10.435 12.6184 10.3997 12.5831C10.3644 12.5478 10.3445 12.4999 10.3444 12.45V10.4487C10.3445 10.3988 10.3644 10.351 10.3997 10.3157C10.435 10.2804 10.4828 10.2605 10.5328 10.2604ZM24.4432 10.2604H26.4445C26.4944 10.2605 26.5423 10.2804 26.5776 10.3157C26.6129 10.351 26.6328 10.3988 26.6329 10.4487V12.45C26.6328 12.4999 26.6129 12.5478 26.5776 12.5831C26.5423 12.6184 26.4944 12.6383 26.4445 12.6384H24.4432C24.3933 12.6383 24.3454 12.6184 24.3101 12.5831C24.2748 12.5478 24.2549 12.4999 24.2548 12.45V10.4487C24.2549 10.3988 24.2748 10.351 24.3101 10.3157C24.3454 10.2804 24.3933 10.2605 24.4432 10.2604ZM17.4879 10.2604H19.4892C19.5391 10.2605 19.587 10.2804 19.6223 10.3157C19.6576 10.351 19.6775 10.3988 19.6776 10.4487V12.45C19.6775 12.4999 19.6576 12.5478 19.6223 12.5831C19.587 12.6184 19.5391 12.6383 19.4892 12.6384H17.4879C17.438 12.6383 17.3902 12.6184 17.3548 12.5831C17.3195 12.5478 17.2997 12.4999 17.2996 12.45V10.4487C17.2997 10.3988 17.3195 10.351 17.3548 10.3157C17.3902 10.2804 17.438 10.2605 17.4879 10.2604ZM22.4037 8.813V16.2588C22.4037 16.3621 22.4879 16.4463 22.5912 16.4463H28.2964C28.3997 16.4463 28.4839 16.3621 28.4839 16.2588V7.26769C28.4841 7.23884 28.4775 7.21036 28.4648 7.18447C28.4521 7.15858 28.4335 7.13598 28.4106 7.11845C28.3877 7.10092 28.3611 7.08893 28.3328 7.08342C28.3045 7.07791 28.2752 7.07903 28.2474 7.08669L22.5422 8.63206C22.5023 8.6425 22.4669 8.66596 22.4419 8.69874C22.4168 8.73151 22.4033 8.77173 22.4037 8.813ZM15.4485 8.813V16.2588C15.4485 16.3621 15.5327 16.4463 15.636 16.4463H21.3412C21.4445 16.4463 21.5287 16.3621 21.5287 16.2588V7.26769C21.5289 7.23884 21.5223 7.21036 21.5096 7.18447C21.4969 7.15858 21.4784 7.13598 21.4555 7.11845C21.4325 7.10092 21.4059 7.08893 21.3776 7.08342C21.3493 7.07791 21.3201 7.07903 21.2922 7.08669L15.587 8.63206C15.5471 8.6425 15.5118 8.66596 15.4867 8.69874C15.4616 8.73151 15.4481 8.77173 15.4485 8.813ZM8.49325 8.813V16.2588C8.49325 16.3621 8.5775 16.4463 8.68075 16.4463H14.386C14.4892 16.4463 14.5735 16.3621 14.5735 16.2588V7.26769C14.5736 7.23884 14.5671 7.21036 14.5544 7.18447C14.5416 7.15858 14.5231 7.13598 14.5002 7.11845C14.4773 7.10092 14.4506 7.08893 14.4223 7.08342C14.394 7.07791 14.3648 7.07903 14.337 7.08669L8.63175 8.63206C8.59182 8.6425 8.55651 8.66596 8.53142 8.69874C8.50633 8.73151 8.4929 8.77173 8.49325 8.813ZM7.61825 4.13013H3.51612V16.2588C3.51612 16.3621 3.60037 16.4463 3.70362 16.4463H7.43081C7.53406 16.4463 7.61831 16.3621 7.61831 16.2588L7.61825 4.13013Z" fill="white"/>
</svg>
