<svg width="32" height="32" viewBox="0 0 32 32" fill="none" xmlns="http://www.w3.org/2000/svg">
<g clip-path="url(#clip0_478_8044)">
<path d="M17.3733 2.49331L2.72 0.266641C2.04 0.159974 1.34667 0.346641 0.826667 0.786641C0.306667 1.23997 0 1.89331 0 2.57331V30.6666C0 31.4 0.6 32 1.33333 32H5.66667V25C5.66667 23.7066 6.70667 22.6666 8 22.6666H11.3333C12.6267 22.6666 13.6667 23.7066 13.6667 25V32H19.3333V4.79997C19.3333 3.65331 18.5067 2.67997 17.3733 2.49331ZM7.33333 19.6666H5.33333C5.06812 19.6666 4.81376 19.5613 4.62623 19.3737C4.43869 19.1862 4.33333 18.9319 4.33333 18.6666C4.33333 18.4014 4.43869 18.1471 4.62623 17.9595C4.81376 17.772 5.06812 17.6666 5.33333 17.6666H7.33333C7.59855 17.6666 7.8529 17.772 8.04044 17.9595C8.22798 18.1471 8.33333 18.4014 8.33333 18.6666C8.33333 18.9319 8.22798 19.1862 8.04044 19.3737C7.8529 19.5613 7.59855 19.6666 7.33333 19.6666ZM7.33333 15.6666H5.33333C5.06812 15.6666 4.81376 15.5613 4.62623 15.3737C4.43869 15.1862 4.33333 14.9319 4.33333 14.6666C4.33333 14.4014 4.43869 14.1471 4.62623 13.9595C4.81376 13.772 5.06812 13.6666 5.33333 13.6666H7.33333C7.59855 13.6666 7.8529 13.772 8.04044 13.9595C8.22798 14.1471 8.33333 14.4014 8.33333 14.6666C8.33333 14.9319 8.22798 15.1862 8.04044 15.3737C7.8529 15.5613 7.59855 15.6666 7.33333 15.6666ZM7.33333 11.6666H5.33333C5.06812 11.6666 4.81376 11.5613 4.62623 11.3737C4.43869 11.1862 4.33333 10.9319 4.33333 10.6666C4.33333 10.4014 4.43869 10.1471 4.62623 9.95953C4.81376 9.772 5.06812 9.66664 5.33333 9.66664H7.33333C7.59855 9.66664 7.8529 9.772 8.04044 9.95953C8.22798 10.1471 8.33333 10.4014 8.33333 10.6666C8.33333 10.9319 8.22798 11.1862 8.04044 11.3737C7.8529 11.5613 7.59855 11.6666 7.33333 11.6666ZM7.33333 7.66664H5.33333C5.06812 7.66664 4.81376 7.56128 4.62623 7.37375C4.43869 7.18621 4.33333 6.93186 4.33333 6.66664C4.33333 6.40142 4.43869 6.14707 4.62623 5.95953C4.81376 5.772 5.06812 5.66664 5.33333 5.66664H7.33333C7.59855 5.66664 7.8529 5.772 8.04044 5.95953C8.22798 6.14707 8.33333 6.40142 8.33333 6.66664C8.33333 6.93186 8.22798 7.18621 8.04044 7.37375C7.8529 7.56128 7.59855 7.66664 7.33333 7.66664ZM14 19.6666H12C11.7348 19.6666 11.4804 19.5613 11.2929 19.3737C11.1054 19.1862 11 18.9319 11 18.6666C11 18.4014 11.1054 18.1471 11.2929 17.9595C11.4804 17.772 11.7348 17.6666 12 17.6666H14C14.2652 17.6666 14.5196 17.772 14.7071 17.9595C14.8946 18.1471 15 18.4014 15 18.6666C15 18.9319 14.8946 19.1862 14.7071 19.3737C14.5196 19.5613 14.2652 19.6666 14 19.6666ZM14 15.6666H12C11.7348 15.6666 11.4804 15.5613 11.2929 15.3737C11.1054 15.1862 11 14.9319 11 14.6666C11 14.4014 11.1054 14.1471 11.2929 13.9595C11.4804 13.772 11.7348 13.6666 12 13.6666H14C14.2652 13.6666 14.5196 13.772 14.7071 13.9595C14.8946 14.1471 15 14.4014 15 14.6666C15 14.9319 14.8946 15.1862 14.7071 15.3737C14.5196 15.5613 14.2652 15.6666 14 15.6666ZM14 11.6666H12C11.7348 11.6666 11.4804 11.5613 11.2929 11.3737C11.1054 11.1862 11 10.9319 11 10.6666C11 10.4014 11.1054 10.1471 11.2929 9.95953C11.4804 9.772 11.7348 9.66664 12 9.66664H14C14.2652 9.66664 14.5196 9.772 14.7071 9.95953C14.8946 10.1471 15 10.4014 15 10.6666C15 10.9319 14.8946 11.1862 14.7071 11.3737C14.5196 11.5613 14.2652 11.6666 14 11.6666ZM14 7.66664H12C11.7348 7.66664 11.4804 7.56128 11.2929 7.37375C11.1054 7.18621 11 6.93186 11 6.66664C11 6.40142 11.1054 6.14707 11.2929 5.95953C11.4804 5.772 11.7348 5.66664 12 5.66664H14C14.2652 5.66664 14.5196 5.772 14.7071 5.95953C14.8946 6.14707 15 6.40142 15 6.66664C15 6.93186 14.8946 7.18621 14.7071 7.37375C14.5196 7.56128 14.2652 7.66664 14 7.66664ZM30.16 14.456L20.6667 12.468V32H29.6667C30.9533 32 32 30.9533 32 29.6666V16.736C32 15.6346 31.2493 14.6973 30.16 14.456ZM27 28H25C24.7348 28 24.4804 27.8946 24.2929 27.7071C24.1054 27.5195 24 27.2652 24 27C24 26.7348 24.1054 26.4804 24.2929 26.2929C24.4804 26.1053 24.7348 26 25 26H27C27.2652 26 27.5196 26.1053 27.7071 26.2929C27.8946 26.4804 28 26.7348 28 27C28 27.2652 27.8946 27.5195 27.7071 27.7071C27.5196 27.8946 27.2652 28 27 28ZM27 24H25C24.7348 24 24.4804 23.8946 24.2929 23.7071C24.1054 23.5195 24 23.2652 24 23C24 22.7348 24.1054 22.4804 24.2929 22.2929C24.4804 22.1053 24.7348 22 25 22H27C27.2652 22 27.5196 22.1053 27.7071 22.2929C27.8946 22.4804 28 22.7348 28 23C28 23.2652 27.8946 23.5195 27.7071 23.7071C27.5196 23.8946 27.2652 24 27 24ZM27 20H25C24.7348 20 24.4804 19.8946 24.2929 19.7071C24.1054 19.5195 24 19.2652 24 19C24 18.7348 24.1054 18.4804 24.2929 18.2929C24.4804 18.1053 24.7348 18 25 18H27C27.2652 18 27.5196 18.1053 27.7071 18.2929C27.8946 18.4804 28 18.7348 28 19C28 19.2652 27.8946 19.5195 27.7071 19.7071C27.5196 19.8946 27.2652 20 27 20Z" fill="white"/>
</g>
<defs>
<clipPath id="clip0_478_8044">
<rect width="32" height="32" fill="white"/>
</clipPath>
</defs>
</svg>
