<svg width="38" height="38" viewBox="0 0 38 38" fill="none" xmlns="http://www.w3.org/2000/svg">
<path d="M24.541 7.521C22.2707 7.521 20.0513 8.19424 18.1635 9.45558C16.2758 10.7169 14.8045 12.5097 13.9356 14.6073C13.0668 16.7048 12.8395 19.0129 13.2824 21.2396C13.7253 23.4664 14.8186 25.5118 16.424 27.1172C18.0294 28.7225 20.0748 29.8158 22.3015 30.2588C24.5283 30.7017 26.8364 30.4744 28.9339 29.6055C31.0314 28.7367 32.8242 27.2654 34.0856 25.3776C35.3469 23.4899 36.0202 21.2705 36.0202 19.0002C36.016 15.957 34.8052 13.0396 32.6534 10.8878C30.5015 8.73594 27.5842 7.52518 24.541 7.521ZM28.151 22.6102C27.9284 22.8325 27.6265 22.9575 27.3118 22.9575C26.9972 22.9575 26.6953 22.8325 26.4727 22.6102L23.7493 19.8393C23.5266 19.6168 23.4013 19.315 23.401 19.0002V14.2502C23.401 13.9352 23.5261 13.6332 23.7488 13.4105C23.9715 13.1878 24.2736 13.0627 24.5885 13.0627C24.9035 13.0627 25.2055 13.1878 25.4282 13.4105C25.6509 13.6332 25.776 13.9352 25.776 14.2502V18.5093L28.1985 20.9318C28.4147 21.1607 28.5312 21.4661 28.5223 21.7808C28.5133 22.0956 28.3798 22.3939 28.151 22.6102ZM10.291 20.1877H3.16602C2.85107 20.1877 2.54903 20.0626 2.32633 19.8399C2.10363 19.6172 1.97852 19.3151 1.97852 19.0002C1.97852 18.6852 2.10363 18.3832 2.32633 18.1605C2.54903 17.9378 2.85107 17.8127 3.16602 17.8127H10.291C10.606 17.8127 10.908 17.9378 11.1307 18.1605C11.3534 18.3832 11.4785 18.6852 11.4785 19.0002C11.4785 19.3151 11.3534 19.6172 11.1307 19.8399C10.908 20.0626 10.606 20.1877 10.291 20.1877Z" fill="white"/>
<path d="M11.8743 13.8545H7.91602C7.60107 13.8545 7.29903 13.7294 7.07633 13.5067C6.85363 13.284 6.72852 12.9819 6.72852 12.667C6.72852 12.352 6.85363 12.05 7.07633 11.8273C7.29903 11.6046 7.60107 11.4795 7.91602 11.4795H11.8743C12.1893 11.4795 12.4913 11.6046 12.714 11.8273C12.9367 12.05 13.0618 12.352 13.0618 12.667C13.0618 12.9819 12.9367 13.284 12.714 13.5067C12.4913 13.7294 12.1893 13.8545 11.8743 13.8545ZM11.8743 26.5212H7.91602C7.60107 26.5212 7.29903 26.396 7.07633 26.1733C6.85363 25.9506 6.72852 25.6486 6.72852 25.3337C6.72852 25.0187 6.85363 24.7167 7.07633 24.494C7.29903 24.2713 7.60107 24.1462 7.91602 24.1462H11.8743C12.1893 24.1462 12.4913 24.2713 12.714 24.494C12.9367 24.7167 13.0618 25.0187 13.0618 25.3337C13.0618 25.6486 12.9367 25.9506 12.714 26.1733C12.4913 26.396 12.1893 26.5212 11.8743 26.5212Z" fill="white"/>
</svg>
