<svg width="38" height="38" viewBox="0 0 38 38" fill="none" xmlns="http://www.w3.org/2000/svg">
<path d="M10.7715 35.5062H1.86475C1.79513 35.5065 1.72621 35.4923 1.66234 35.4646C1.59847 35.4369 1.54105 35.3963 1.4937 35.3452C1.44635 35.2942 1.4101 35.2339 1.38725 35.1681C1.3644 35.1024 1.35545 35.0326 1.36095 34.9632C1.6409 31.2313 4.78206 28.2644 8.58243 28.2644C10.6871 28.2644 12.5891 29.1746 13.9154 30.6204C12.3553 31.8056 11.2128 33.5219 10.7715 35.5062ZM25.5049 23.6083C25.5049 25.7699 27.2572 27.5222 29.4188 27.5222C31.5805 27.5222 33.3328 25.7699 33.3328 23.6083C33.3328 21.4467 31.5805 19.6943 29.4188 19.6943C27.2572 19.6943 25.5049 21.4467 25.5049 23.6083ZM36.6403 34.9633C36.3604 31.2313 33.2192 28.2644 29.4188 28.2644C27.3142 28.2644 25.4121 29.1746 24.0858 30.6205C25.6461 31.8057 26.7885 33.5219 27.2298 35.5062H36.1366C36.2062 35.5066 36.2751 35.4924 36.339 35.4647C36.4029 35.437 36.4603 35.3963 36.5076 35.3453C36.555 35.2943 36.5912 35.234 36.614 35.1682C36.6369 35.1024 36.6458 35.0327 36.6403 34.9633ZM8.58251 27.5222C10.7441 27.5222 12.4964 25.7699 12.4964 23.6083C12.4964 21.4467 10.7441 19.6943 8.58251 19.6943C6.42089 19.6943 4.66851 21.4467 4.66851 23.6083C4.66858 25.7699 6.42089 27.5222 8.58251 27.5222ZM19.0007 30.0902C15.2002 30.0902 12.0591 33.0571 11.7791 36.789C11.7736 36.8584 11.7826 36.9282 11.8054 36.994C11.8283 37.0598 11.8645 37.1201 11.9119 37.1711C11.9592 37.2221 12.0166 37.2628 12.0805 37.2905C12.1444 37.3182 12.2133 37.3323 12.2829 37.332H25.7184C25.788 37.3323 25.8569 37.3182 25.9208 37.2905C25.9846 37.2628 26.0421 37.2221 26.0894 37.1711C26.1368 37.1201 26.173 37.0598 26.1959 36.994C26.2187 36.9282 26.2277 36.8584 26.2222 36.789C25.9422 33.0571 22.8011 30.0902 19.0007 30.0902ZM15.0867 25.4341C15.0867 27.5957 16.839 29.348 19.0006 29.348C21.1622 29.348 22.9146 27.5956 22.9146 25.4341C22.9146 23.2725 21.1623 21.5202 19.0006 21.5202C16.839 21.5202 15.0867 23.2725 15.0867 25.4341ZM10.8028 12.1579H9.15385V8.87152H10.8028C11.016 7.80285 11.4372 6.78652 12.0425 5.88035L10.876 4.71386L13.1999 2.39007L14.3664 3.55649C15.2725 2.95117 16.2889 2.52993 17.3575 2.31674V0.667969H20.6439V2.31681C21.7126 2.52997 22.7289 2.95121 23.635 3.55656L24.8015 2.39007L27.1253 4.71393L25.9589 5.88035C26.5642 6.78655 26.9854 7.8029 27.1987 8.87159H28.8475V12.158H27.1987C26.9855 13.2267 26.5642 14.243 25.9589 15.1492L27.1255 16.3157L24.8016 18.6394L23.6351 17.4729C22.729 18.0782 21.7126 18.4995 20.6439 18.7126V20.3616H17.3575V18.7126C16.2888 18.4994 15.2725 18.0782 14.3664 17.4729L13.1998 18.6394L10.876 16.3156L12.0425 15.149C11.4372 14.2429 11.016 13.2266 10.8028 12.1579ZM13.8885 10.5148C13.8885 13.3382 16.1773 15.627 19.0007 15.627C21.824 15.627 24.1129 13.3381 24.1129 10.5148C24.1129 7.69136 21.824 5.40261 19.0007 5.40261C16.1773 5.40261 13.8885 7.69136 13.8885 10.5148ZM17.8322 12.5348C18.1224 12.8172 18.5867 12.8141 18.8729 12.5262L21.8243 9.54705C22.1125 9.25723 22.1113 8.78861 21.8214 8.50042C21.5316 8.21223 21.063 8.21349 20.7748 8.50332L18.3391 10.9619L17.2179 9.86894C16.9248 9.58394 16.4562 9.5904 16.1712 9.88341C15.8862 10.1764 15.8928 10.645 16.1857 10.93L17.8322 12.5348Z" fill="white"/>
</svg>
