<svg width="38" height="38" viewBox="0 0 38 38" fill="none" xmlns="http://www.w3.org/2000/svg">
<path fill-rule="evenodd" clip-rule="evenodd" d="M18.0639 35.0021C13.8067 35.0019 9.69676 35.0015 8.20038 35.0007C8.12553 35.0006 8.05155 34.9845 7.98352 34.9532C7.9155 34.922 7.85502 34.8764 7.80622 34.8197C7.75743 34.7629 7.72147 34.6963 7.7008 34.6243C7.68014 34.5524 7.67525 34.4768 7.68649 34.4028C8.42786 29.7978 11.9598 26.1237 16.495 25.1712L14.5823 30.1786C14.4452 30.5375 14.4179 30.929 14.5039 31.3034C14.5899 31.6778 14.7852 32.0182 15.0651 32.2813L17.6565 34.7175C17.7777 34.8317 17.915 34.9276 18.0639 35.0021ZM21.1599 25.1717C22.6742 25.4902 24.0769 26.1128 25.3014 26.9723C24.435 28.132 23.9211 29.5692 23.9211 31.1223C23.9211 32.5573 24.3598 33.893 25.1098 35.0024L19.5966 35.0022C19.746 34.9274 19.8837 34.8311 20.0053 34.7164L22.5912 32.2805C22.8706 32.0173 23.0655 31.6771 23.1512 31.303C23.2369 30.9288 23.2096 30.5377 23.0726 30.1791L21.1599 25.1717ZM18.8301 23.8124C15.6825 23.8124 13.1202 21.2501 13.1202 18.108C13.1202 14.9659 15.6825 12.4036 18.8301 12.4036C21.9722 12.4036 24.5345 14.9659 24.5345 18.108C24.5345 21.2501 21.9722 23.8124 18.8301 23.8124ZM17.8633 24.9301H19.7914L21.9589 30.6045C22.0116 30.7424 22.0221 30.8929 21.9892 31.0368C21.9562 31.1807 21.8812 31.3116 21.7738 31.4128L19.188 33.8486C19.0913 33.9397 18.9634 33.9905 18.8306 33.9905C18.6977 33.9906 18.5698 33.94 18.4731 33.849L15.8817 31.4128C15.774 31.3116 15.6989 31.1807 15.6658 31.0367C15.6327 30.8927 15.6432 30.7421 15.6959 30.6041L17.8633 24.9301ZM30.8751 36.8824C27.702 36.8824 25.1133 34.2954 25.1133 31.1223C25.1133 27.9492 27.702 25.3605 30.8751 25.3605C34.0482 25.3605 36.6352 27.9492 36.6352 31.1223C36.6352 34.2954 34.0482 36.8824 30.8751 36.8824ZM30.1188 31.6294L28.8313 30.3419C28.4978 30.0084 27.9564 30.0084 27.6229 30.3419C27.2894 30.6772 27.2894 31.2168 27.6229 31.5503L29.5155 33.4446C29.8489 33.778 30.3904 33.778 30.7239 33.4446C31.8652 32.3032 32.9929 31.1498 34.1291 30.0033C34.4608 29.6681 34.4591 29.1284 34.1255 28.7966C33.7921 28.4649 33.2507 28.4666 32.9189 28.8L30.1188 31.6294ZM19.0532 1.27387L20.2148 4.32974C20.2499 4.42258 20.3302 4.48025 20.428 4.48531L23.6947 4.64588C23.9179 4.65587 24.0083 4.93692 23.8352 5.07491L21.2861 7.12468C21.2083 7.18488 21.1782 7.28025 21.2033 7.37555L22.0614 10.5318C22.1216 10.745 21.8832 10.9182 21.6975 10.7977L18.9603 9.00635C18.8776 8.95121 18.7772 8.95121 18.6943 9.00635L15.9597 10.7977C15.774 10.9182 15.5357 10.745 15.5933 10.5318L16.4514 7.37555C16.4765 7.28025 16.4464 7.18488 16.3686 7.12468L13.8195 5.07491C13.6465 4.93692 13.7368 4.65587 13.9601 4.64588L17.2267 4.48531C17.3245 4.48025 17.4048 4.42258 17.4399 4.32974L18.6016 1.27387C18.6793 1.06561 18.9754 1.06561 19.0532 1.27387ZM31.4188 10.1242L32.5804 13.1801C32.6155 13.2729 32.6959 13.3306 32.7937 13.3356L36.0603 13.4962C36.2836 13.5062 36.3739 13.7872 36.2008 13.9252L33.6517 15.975C33.574 16.0352 33.5439 16.1305 33.569 16.2259L34.427 19.3821C34.4872 19.5954 34.2489 19.7685 34.0632 19.6481L31.326 17.8567C31.2431 17.8015 31.1428 17.8015 31.06 17.8567L28.3253 19.6481C28.1397 19.7685 27.9013 19.5954 27.959 19.3821L28.817 16.2259C28.8421 16.1305 28.812 16.0352 28.7342 15.975L26.1852 13.9252C26.0121 13.7872 26.1024 13.5062 26.3257 13.4962L29.5923 13.3356C29.6901 13.3306 29.7705 13.2729 29.8055 13.1801L30.9672 10.1242C31.0449 9.91596 31.341 9.91596 31.4188 10.1242ZM6.68754 10.1242L7.84914 13.1801C7.88424 13.2729 7.96456 13.3306 8.06239 13.3356L11.329 13.4962C11.5523 13.5062 11.6427 13.7872 11.4695 13.9252L8.92045 15.975C8.84266 16.0352 8.81256 16.1305 8.83767 16.2259L9.69572 19.3821C9.75592 19.5954 9.51757 19.7685 9.33189 19.6481L6.5947 17.8567C6.51192 17.8015 6.41155 17.8015 6.32877 17.8567L3.59404 19.6481C3.40836 19.7685 3.17 19.5954 3.22775 19.3821L4.0858 16.2259C4.11084 16.1305 4.08074 16.0352 4.00295 15.975L1.45389 13.9252C1.28081 13.7872 1.37111 13.5062 1.59442 13.4962L4.861 13.3356C4.95883 13.3306 5.03915 13.2729 5.07425 13.1801L6.23593 10.1242C6.31372 9.91596 6.60975 9.91596 6.68754 10.1242Z" fill="white"/>
</svg>
