<svg width="38" height="38" viewBox="0 0 38 38" fill="none" xmlns="http://www.w3.org/2000/svg">
<g clip-path="url(#clip0_478_13671)">
<path d="M15.7299 16.584C18.3913 17.6721 20.7175 19.6095 22.2701 22.0323V8.83159H25.0535L19 0L12.9465 8.83159H15.7299V16.584ZM20.423 23.2823C18.32 19.9757 14.6278 17.7778 10.4326 17.7778H7.58909V14.9892L0 21.0539L7.58902 27.1186V24.33H10.4325C12.8398 24.33 14.8759 25.9478 15.518 28.1547C16.7261 26.1508 18.4111 24.477 20.423 23.2823ZM38 26.831L30.4109 20.7663V23.5549H27.5674C21.0402 23.5549 15.7299 28.875 15.7299 35.4143V38H22.2701V35.4142C22.2701 32.4878 24.6465 30.1071 27.5674 30.1071H30.4109V32.8957L38 26.831Z" fill="white"/>
</g>
<defs>
<clipPath id="clip0_478_13671">
<rect width="38" height="38" fill="white"/>
</clipPath>
</defs>
</svg>
