<svg width="38" height="38" viewBox="0 0 38 38" fill="none" xmlns="http://www.w3.org/2000/svg">
<path d="M31.9211 20.9224V7.63721C31.9211 6.77627 31.2234 6.07861 30.3625 6.07861H17.0773C15.6895 6.07861 14.9918 7.75596 15.9715 8.74307L29.2566 22.0282C30.2438 23.0079 31.9211 22.3103 31.9211 20.9224ZM6.07812 17.0778V30.363C6.07812 31.2239 6.77578 31.9216 7.63672 31.9216H20.9219C22.3098 31.9216 23.0074 30.2442 22.0277 29.2571L8.74258 15.972C7.75547 14.9923 6.07812 15.6899 6.07812 17.0778ZM10.8059 13.9087L24.0984 27.2013C24.707 27.8099 25.6941 27.8099 26.3027 27.2013L27.2008 26.3032C27.8094 25.6946 27.8094 24.7075 27.2008 24.0989L13.9082 10.8063C13.2996 10.1978 12.3125 10.1978 11.7039 10.8063L10.8059 11.7044C10.1973 12.3056 10.1973 13.2927 10.8059 13.9087Z" fill="white"/>
</svg>
