<svg width="816" height="487" viewBox="0 0 816 487" fill="none" xmlns="http://www.w3.org/2000/svg">
<g filter="url(#filter0_d_478_11004)">
<rect width="735" height="389" rx="20" transform="matrix(-1 0 0 1 753 74)" fill="#064789"/>
</g>
<g clip-path="url(#clip0_478_11004)">
<g filter="url(#filter1_d_478_11004)">
<rect x="57" width="759" height="429" rx="20" fill="#DDEDFE"/>
</g>
<path fill-rule="evenodd" clip-rule="evenodd" d="M54 -8H568V442H54V-8ZM54.8031 -7.19643H117.447V55.4821H54.8031V-7.19643ZM119.053 -7.19643H181.697V55.4821H119.053V-7.19643ZM245.947 -7.19643H183.303V55.4821H245.947V-7.19643ZM247.553 -7.19643H310.197V55.4821H247.553V-7.19643ZM374.447 -7.19643H311.803V55.4821H374.447V-7.19643ZM376.053 -7.19643H438.697V55.4821H376.053V-7.19643ZM502.947 -7.19643H440.303V55.4821H502.947V-7.19643ZM504.553 -7.19643H567.197V55.4821H504.553V-7.19643ZM117.447 57.0893H54.8031V119.768H117.447V57.0893ZM119.053 57.0893H181.697V119.768H119.053V57.0893ZM245.947 57.0893H183.303V119.768H245.947V57.0893ZM247.553 57.0893H310.197V119.768H247.553V57.0893ZM374.447 57.0893H311.803V119.768H374.447V57.0893ZM376.053 57.0893H438.697V119.768H376.053V57.0893ZM502.947 57.0893H440.303V119.768H502.947V57.0893ZM504.553 57.0893H567.197V119.768H504.553V57.0893ZM117.447 121.375H54.8031V184.054H117.447V121.375ZM119.053 121.375H181.697V184.054H119.053V121.375ZM245.947 121.375H183.303V184.054H245.947V121.375ZM247.553 121.375H310.197V184.054H247.553V121.375ZM374.447 121.375H311.803V184.054H374.447V121.375ZM376.053 121.375H438.697V184.054H376.053V121.375ZM502.947 121.375H440.303V184.054H502.947V121.375ZM504.553 121.375H567.197V184.054H504.553V121.375ZM117.447 185.661H54.8031V248.339H117.447V185.661ZM119.053 185.661H181.697V248.339H119.053V185.661ZM245.947 185.661H183.303V248.339H245.947V185.661ZM247.553 185.661H310.197V248.339H247.553V185.661ZM374.447 185.661H311.803V248.339H374.447V185.661ZM376.053 185.661H438.697V248.339H376.053V185.661ZM502.947 185.661H440.303V248.339H502.947V185.661ZM504.553 185.661H567.197V248.339H504.553V185.661ZM117.447 249.946H54.8031V312.625H117.447V249.946ZM119.053 249.946H181.697V312.625H119.053V249.946ZM245.947 249.946H183.303V312.625H245.947V249.946ZM247.553 249.946H310.197V312.625H247.553V249.946ZM374.447 249.946H311.803V312.625H374.447V249.946ZM376.053 249.946H438.697V312.625H376.053V249.946ZM502.947 249.946H440.303V312.625H502.947V249.946ZM504.553 249.946H567.197V312.625H504.553V249.946ZM117.447 314.232H54.8031V376.911H117.447V314.232ZM119.053 314.232H181.697V376.911H119.053V314.232ZM245.947 314.232H183.303V376.911H245.947V314.232ZM247.553 314.232H310.197V376.911H247.553V314.232ZM374.447 314.232H311.803V376.911H374.447V314.232ZM376.053 314.232H438.697V376.911H376.053V314.232ZM502.947 314.232H440.303V376.911H502.947V314.232ZM504.553 314.232H567.197V376.911H504.553V314.232ZM117.447 378.518H54.8031V441.196H117.447V378.518ZM119.053 378.518H181.697V441.196H119.053V378.518ZM245.947 378.518H183.303V441.196H245.947V378.518ZM247.553 378.518H310.197V441.196H247.553V378.518ZM374.447 378.518H311.803V441.196H374.447V378.518ZM376.053 378.518H438.697V441.196H376.053V378.518ZM502.947 378.518H440.303V441.196H502.947V378.518ZM504.553 378.518H567.197V441.196H504.553V378.518Z" fill="#698E45" fill-opacity="0.1"/>
<circle cx="836" cy="198" r="83" fill="#064789"/>
<circle cx="845.5" cy="197.5" r="65.5" fill="white"/>
<rect x="211" y="43" width="450" height="342" rx="20" fill="#064789"/>
</g>
<defs>
<filter id="filter0_d_478_11004" x="0" y="62" width="771" height="425" filterUnits="userSpaceOnUse" color-interpolation-filters="sRGB">
<feFlood flood-opacity="0" result="BackgroundImageFix"/>
<feColorMatrix in="SourceAlpha" type="matrix" values="0 0 0 0 0 0 0 0 0 0 0 0 0 0 0 0 0 0 127 0" result="hardAlpha"/>
<feOffset dy="6"/>
<feGaussianBlur stdDeviation="9"/>
<feComposite in2="hardAlpha" operator="out"/>
<feColorMatrix type="matrix" values="0 0 0 0 0 0 0 0 0 0 0 0 0 0 0 0 0 0 0.1 0"/>
<feBlend mode="normal" in2="BackgroundImageFix" result="effect1_dropShadow_478_11004"/>
<feBlend mode="normal" in="SourceGraphic" in2="effect1_dropShadow_478_11004" result="shape"/>
</filter>
<filter id="filter1_d_478_11004" x="39" y="-12" width="795" height="465" filterUnits="userSpaceOnUse" color-interpolation-filters="sRGB">
<feFlood flood-opacity="0" result="BackgroundImageFix"/>
<feColorMatrix in="SourceAlpha" type="matrix" values="0 0 0 0 0 0 0 0 0 0 0 0 0 0 0 0 0 0 127 0" result="hardAlpha"/>
<feOffset dy="6"/>
<feGaussianBlur stdDeviation="9"/>
<feComposite in2="hardAlpha" operator="out"/>
<feColorMatrix type="matrix" values="0 0 0 0 0 0 0 0 0 0 0 0 0 0 0 0 0 0 0.06 0"/>
<feBlend mode="normal" in2="BackgroundImageFix" result="effect1_dropShadow_478_11004"/>
<feBlend mode="normal" in="SourceGraphic" in2="effect1_dropShadow_478_11004" result="shape"/>
</filter>
<clipPath id="clip0_478_11004">
<rect width="759" height="429" fill="white" transform="translate(57)"/>
</clipPath>
</defs>
</svg>
