<svg width="33" height="39" viewBox="0 0 33 39" fill="none" xmlns="http://www.w3.org/2000/svg">
<path d="M18.4487 14.7832C20.7091 15.8295 22.4298 17.3693 23.3958 18.9895C24.3639 20.6132 24.5487 22.2627 23.8698 23.602C23.191 24.9412 21.722 25.8253 19.7886 26.106C17.8594 26.386 15.5282 26.0504 13.2679 25.0042C11.0076 23.9579 9.28676 22.4181 8.32079 20.7979C7.35274 19.1742 7.16799 17.5246 7.84679 16.1854C8.52561 14.8462 9.99466 13.9621 11.928 13.6814C13.8572 13.4013 16.1883 13.737 18.4487 14.7832Z" fill="#8CBE5A" stroke="#04B36F"/>
<ellipse cx="5.67806" cy="4.67209" rx="5.67806" ry="4.67209" transform="matrix(0.9075 0.420052 -0.452118 0.891958 10.2427 12.1489)" fill="#8CBE5A"/>
<mask id="path-3-inside-1_478_13677" fill="white">
<path d="M20.0078 21.5738C20.0045 21.5805 20.0019 21.5876 19.9985 21.5943C19.9953 21.6006 19.9913 21.6067 19.9879 21.613L19.8338 21.917L19.7922 21.8977C18.9566 22.8609 16.8452 22.9209 14.8063 21.9773C12.7672 21.0335 11.5069 19.4127 11.7798 18.189L11.7364 18.1689L15.3326 11.0742L23.43 14.8223L20.0078 21.5738Z"/>
</mask>
<path d="M20.0078 21.5738C20.0045 21.5805 20.0019 21.5876 19.9985 21.5943C19.9953 21.6006 19.9913 21.6067 19.9879 21.613L19.8338 21.917L19.7922 21.8977C18.9566 22.8609 16.8452 22.9209 14.8063 21.9773C12.7672 21.0335 11.5069 19.4127 11.7798 18.189L11.7364 18.1689L15.3326 11.0742L23.43 14.8223L20.0078 21.5738Z" fill="#0ACF83"/>
<path d="M20.0078 21.5738L19.1003 21.1538L19.0968 21.1606L19.0935 21.1675L20.0078 21.5738ZM19.9985 21.5943L20.906 22.0143L20.9061 22.0143L19.9985 21.5943ZM19.9879 21.613L19.0872 21.1799L19.0837 21.1864L19.0804 21.193L19.9879 21.613ZM19.8338 21.917L19.3817 22.809L20.2892 23.229L20.7413 22.3371L19.8338 21.917ZM19.7922 21.8977L20.2443 21.0058L19.5378 20.6787L19.0233 21.2718L19.7922 21.8977ZM14.8063 21.9773L14.3541 22.8693L14.3542 22.8693L14.8063 21.9773ZM11.7798 18.189L12.7704 18.3776L12.9385 17.6241L12.2319 17.2971L11.7798 18.189ZM11.7364 18.1689L10.8289 17.7489L10.3767 18.6409L11.2842 19.0609L11.7364 18.1689ZM15.3326 11.0742L15.7847 10.1823L14.8772 9.76221L14.4251 10.6542L15.3326 11.0742ZM23.43 14.8223L24.3375 15.2423L24.7897 14.3504L23.8822 13.9303L23.43 14.8223ZM20.0078 21.5738L19.0935 21.1675C19.0856 21.1838 19.0795 21.1973 19.0758 21.2056C19.0739 21.2098 19.0724 21.2133 19.0714 21.2156C19.0709 21.2167 19.0705 21.2176 19.0702 21.2183C19.0698 21.2193 19.07 21.2189 19.0697 21.2194C19.0695 21.2199 19.07 21.2188 19.0707 21.2172C19.0714 21.2155 19.0727 21.2126 19.0744 21.2088C19.0777 21.2016 19.0834 21.1893 19.091 21.1742L19.9985 21.5943L20.9061 22.0143C20.9154 21.9958 20.9227 21.9802 20.9275 21.9695C20.9321 21.9593 20.9358 21.9508 20.9367 21.9487C20.9369 21.9483 20.937 21.948 20.9371 21.9478C20.9372 21.9475 20.9373 21.9474 20.9373 21.9473C20.9374 21.947 20.9374 21.9471 20.9373 21.9474C20.937 21.9479 20.9363 21.9497 20.9351 21.9522C20.933 21.9571 20.9284 21.9672 20.9221 21.9801L20.0078 21.5738ZM19.9985 21.5943L19.091 21.1742C19.0992 21.158 19.1063 21.1454 19.1105 21.1379C19.1126 21.1341 19.1144 21.1311 19.1154 21.1294C19.1163 21.1278 19.117 21.1267 19.1167 21.1271C19.1167 21.1272 19.1166 21.1272 19.1165 21.1275C19.1164 21.1276 19.1163 21.1279 19.1161 21.1282C19.1157 21.1288 19.1152 21.1298 19.1145 21.1309C19.1132 21.1331 19.1111 21.1366 19.1087 21.1409C19.1039 21.1492 19.0961 21.1629 19.0872 21.1799L19.9879 21.613L20.8887 22.0461C20.8814 22.0599 20.8754 22.0705 20.8724 22.0757C20.8708 22.0785 20.8697 22.0804 20.8693 22.0811C20.8692 22.0813 20.8687 22.0821 20.8698 22.0802C20.8709 22.0784 20.8758 22.0701 20.8815 22.0601C20.8875 22.0495 20.8962 22.0337 20.906 22.0143L19.9985 21.5943ZM19.9879 21.613L19.0804 21.193L18.9263 21.497L19.8338 21.917L20.7413 22.3371L20.8954 22.0331L19.9879 21.613ZM19.8338 21.917L20.286 21.025L20.2443 21.0058L19.7922 21.8977L19.3401 22.7897L19.3817 22.809L19.8338 21.917ZM19.7922 21.8977L19.0233 21.2718C18.8779 21.4393 18.492 21.6523 17.7523 21.6668C17.0433 21.6808 16.1589 21.5021 15.2583 21.0853L14.8063 21.9773L14.3542 22.8693C15.4925 23.3961 16.6833 23.6592 17.7486 23.6383C18.7833 23.6179 19.8709 23.3193 20.5611 22.5237L19.7922 21.8977ZM14.8063 21.9773L15.2584 21.0854C14.3577 20.6685 13.6625 20.116 13.2342 19.5756C12.7874 19.0118 12.723 18.5903 12.7704 18.3776L11.7798 18.189L10.7891 18.0005C10.5637 19.0115 10.993 20.0122 11.6179 20.8007C12.2613 21.6126 13.2158 22.3424 14.3541 22.8693L14.8063 21.9773ZM11.7798 18.189L12.2319 17.2971L12.1885 17.277L11.7364 18.1689L11.2842 19.0609L11.3277 19.081L11.7798 18.189ZM11.7364 18.1689L12.6439 18.589L16.2401 11.4943L15.3326 11.0742L14.4251 10.6542L10.8289 17.7489L11.7364 18.1689ZM15.3326 11.0742L14.8804 11.9662L22.9779 15.7142L23.43 14.8223L23.8822 13.9303L15.7847 10.1823L15.3326 11.0742ZM23.43 14.8223L22.5225 14.4022L19.1003 21.1538L20.0078 21.5738L20.9153 21.9939L24.3375 15.2423L23.43 14.8223Z" fill="#04B36F" mask="url(#path-3-inside-1_478_13677)"/>
<rect width="1.6223" height="5.45078" transform="matrix(0.9075 0.420052 -0.452118 0.891958 15.7154 12.1094)" fill="#4BF1B1"/>
<path d="M23.7306 4.36456C25.5718 5.21684 26.9392 6.53716 27.6734 7.96185C28.4074 9.38612 28.4988 10.8858 27.8559 12.1544C27.2128 13.423 25.9244 14.285 24.2997 14.6176C22.6748 14.9502 20.7428 14.7435 18.9017 13.8913C17.0604 13.039 15.6922 11.7183 14.958 10.2936C14.2241 8.86928 14.1339 7.3691 14.7769 6.10056C15.4199 4.83222 16.7074 3.97052 18.3317 3.63786C19.9567 3.30517 21.8893 3.51228 23.7306 4.36456Z" fill="#8CBE5A" stroke="#04B36F"/>
<ellipse cx="3.24461" cy="2.72539" rx="3.24461" ry="2.72539" transform="matrix(0.9075 0.420052 -0.452118 0.891958 17.3794 3.44727)" fill="#9FDB62"/>
<rect width="1.6223" height="10.1229" transform="matrix(0.9075 0.420052 -0.452118 0.891958 11.938 24.939)" fill="white"/>
</svg>
