<svg width="32" height="32" viewBox="0 0 32 32" fill="none" xmlns="http://www.w3.org/2000/svg">
<path d="M1.6875 29.8939H30.3125V27.5127H1.6875V29.8939ZM12.4125 5.1627C12.2063 5.1627 12.0375 4.99395 12.0375 4.7877C12.0375 4.58145 12.2063 4.4127 12.4125 4.4127H13.4062C13.6125 4.4127 13.7812 4.58145 13.7812 4.7877C13.7812 4.99395 13.6125 5.1627 13.4062 5.1627H12.4125ZM15.2125 5.1627C15.0062 5.1627 14.8375 4.99395 14.8375 4.7877C14.8375 4.58145 15.0062 4.4127 15.2125 4.4127H16.2062C16.4125 4.4127 16.5812 4.58145 16.5812 4.7877C16.5812 4.99395 16.4125 5.1627 16.2062 5.1627H15.2125ZM12.4125 7.79395C12.2063 7.79395 12.0375 7.6252 12.0375 7.41895C12.0375 7.2127 12.2063 7.04395 12.4125 7.04395H13.4062C13.6125 7.04395 13.7812 7.2127 13.7812 7.41895C13.7812 7.6252 13.6125 7.79395 13.4062 7.79395H12.4125ZM15.2125 7.79395C15.0062 7.79395 14.8375 7.6252 14.8375 7.41895C14.8375 7.2127 15.0062 7.04395 15.2125 7.04395H16.2062C16.4125 7.04395 16.5812 7.2127 16.5812 7.41895C16.5812 7.6252 16.4125 7.79395 16.2062 7.79395H15.2125ZM9.61875 7.79395C9.4125 7.79395 9.24375 7.6252 9.24375 7.41895C9.24375 7.2127 9.4125 7.04395 9.61875 7.04395H10.6125C10.8188 7.04395 10.9875 7.2127 10.9875 7.41895C10.9875 7.6252 10.8188 7.79395 10.6125 7.79395H9.61875ZM12.4125 10.4252C12.2063 10.4252 12.0375 10.2564 12.0375 10.0502C12.0375 9.84395 12.2063 9.6752 12.4125 9.6752H13.4062C13.6125 9.6752 13.7812 9.84395 13.7812 10.0502C13.7812 10.2564 13.6125 10.4252 13.4062 10.4252H12.4125ZM15.2125 10.4252C15.0062 10.4252 14.8375 10.2564 14.8375 10.0502C14.8375 9.84395 15.0062 9.6752 15.2125 9.6752H16.2062C16.4125 9.6752 16.5812 9.84395 16.5812 10.0502C16.5812 10.2564 16.4125 10.4252 16.2062 10.4252H15.2125ZM9.61875 10.4252C9.4125 10.4252 9.24375 10.2564 9.24375 10.0502C9.24375 9.84395 9.4125 9.6752 9.61875 9.6752H10.6125C10.8188 9.6752 10.9875 9.84395 10.9875 10.0502C10.9875 10.2564 10.8188 10.4252 10.6125 10.4252H9.61875ZM12.4125 13.0564C12.2063 13.0564 12.0375 12.8877 12.0375 12.6814C12.0375 12.4752 12.2063 12.3064 12.4125 12.3064H13.4062C13.6125 12.3064 13.7812 12.4752 13.7812 12.6814C13.7812 12.8877 13.6125 13.0564 13.4062 13.0564H12.4125ZM15.2125 13.0564C15.0062 13.0564 14.8375 12.8877 14.8375 12.6814C14.8375 12.4752 15.0062 12.3064 15.2125 12.3064H16.2062C16.4125 12.3064 16.5812 12.4752 16.5812 12.6814C16.5812 12.8877 16.4125 13.0564 16.2062 13.0564H15.2125ZM9.61875 13.0564C9.4125 13.0564 9.24375 12.8877 9.24375 12.6814C9.24375 12.4752 9.4125 12.3064 9.61875 12.3064H10.6125C10.8188 12.3064 10.9875 12.4752 10.9875 12.6814C10.9875 12.8877 10.8188 13.0564 10.6125 13.0564H9.61875ZM9.61875 15.6877C9.4125 15.6877 9.24375 15.5189 9.24375 15.3127C9.24375 15.1064 9.4125 14.9377 9.61875 14.9377H10.6125C10.8188 14.9377 10.9875 15.1064 10.9875 15.3127C10.9875 15.5189 10.8188 15.6877 10.6125 15.6877H9.61875ZM9.61875 18.3189C9.4125 18.3189 9.24375 18.1502 9.24375 17.9439C9.24375 17.7377 9.4125 17.5689 9.61875 17.5689H10.6125C10.8188 17.5689 10.9875 17.7377 10.9875 17.9439C10.9875 18.1502 10.8188 18.3189 10.6125 18.3189H9.61875ZM20.9813 13.0314C20.775 13.0314 20.6063 12.8627 20.6063 12.6564C20.6063 12.4502 20.775 12.2814 20.9813 12.2814H22.4062C22.6125 12.2814 22.7812 12.4502 22.7812 12.6564C22.7812 12.8627 22.6125 13.0314 22.4062 13.0314H20.9813ZM21.5375 15.6752C21.3313 15.6752 21.1625 15.5064 21.1625 15.3002C21.1625 15.0939 21.3313 14.9252 21.5375 14.9252H22.4062C22.6125 14.9252 22.7812 15.0939 22.7812 15.3002C22.7812 15.5064 22.6125 15.6752 22.4062 15.6752H21.5375ZM20.9813 10.3939C20.775 10.3939 20.6063 10.2252 20.6063 10.0189C20.6063 9.8127 20.775 9.64395 20.9813 9.64395H22.4062C22.6125 9.64395 22.7812 9.8127 22.7812 10.0189C22.7812 10.2252 22.6125 10.3939 22.4062 10.3939H20.9813ZM25.5438 18.6439C24.5125 18.6439 23.6812 19.4814 23.6812 20.5064C23.6812 21.5377 24.5188 22.3689 25.5438 22.3689C26.5688 22.3689 27.4062 21.5314 27.4062 20.5064C27.4062 19.4814 26.5688 18.6439 25.5438 18.6439ZM17.4062 22.2752H14.5875C12.8062 22.2752 11.3375 23.7377 11.3375 25.5252V26.7627H20.65V25.5252C20.6562 23.7377 19.1938 22.2752 17.4062 22.2752ZM16 16.5689C14.6812 16.5689 13.6125 17.6377 13.6125 18.9564C13.6125 20.2752 14.6812 21.3439 16 21.3439C17.3188 21.3439 18.3875 20.2752 18.3875 18.9564C18.3875 17.6377 17.3188 16.5689 16 16.5689ZM6.45625 18.6439C5.425 18.6439 4.59375 19.4814 4.59375 20.5064C4.59375 21.5377 5.43125 22.3689 6.45625 22.3689C7.48125 22.3689 8.31875 21.5314 8.31875 20.5064C8.325 19.4814 7.4875 18.6439 6.45625 18.6439ZM8.0875 22.5564C9.275 22.7314 10.2688 23.5439 10.6938 24.6439C11.0688 22.9689 12.5 21.7002 14.225 21.5439C12.6125 20.4314 12.3938 18.1252 13.7875 16.7377C15.0188 15.5064 17.0125 15.5127 18.2375 16.7502V2.10645H12.9187C9.99375 2.10645 7.6 4.5002 7.6 7.4252V18.1502C9.31875 18.9877 9.6 21.3502 8.0875 22.5564ZM7.6 23.2689H5.31875C3.9125 23.2689 2.75625 24.4252 2.75625 25.8314V26.7627H10.1625V25.8314C10.1625 24.4252 9.00625 23.2689 7.6 23.2689ZM21.3062 24.6439C21.7312 23.5439 22.725 22.7314 23.9125 22.5564C22.4 21.3502 22.675 18.9877 24.4062 18.1564V7.9877H18.9813V17.4564C18.9813 17.5564 18.9438 17.6439 18.8813 17.7127C19.4813 19.0939 19.0062 20.7002 17.775 21.5439C19.5062 21.7064 20.9312 22.9752 21.3062 24.6439ZM26.6812 23.2689H24.3937C22.9875 23.2689 21.8312 24.4252 21.8312 25.8314V26.7627H29.2375V25.8314C29.2437 24.4252 28.0937 23.2689 26.6812 23.2689Z" fill="white"/>
</svg>
