<svg width="32" height="32" viewBox="0 0 32 32" fill="none" xmlns="http://www.w3.org/2000/svg">
<g clip-path="url(#clip0_478_13687)">
<path d="M0 32.1466H12.4993V24.9802H19.5004V32.1466H31.9996V18H0V32.1466ZM27.2516 20.5733H29.1269V23.6779H27.2516V20.5733ZM27.2516 25.5533H29.1269V28.658H27.2516V25.5533ZM23.3761 20.5733H25.2514V23.6779H23.3761V20.5733ZM23.3761 25.5533H25.2514V28.658H23.3761V25.5533ZM12.4993 20.8754H19.5004V22.7507H12.4993V20.8754ZM6.74827 20.5733H8.62357V23.6779H6.74827V20.5733ZM6.74827 25.5533H8.62357V28.658H6.74827V25.5533ZM2.87277 20.5733H4.74807V23.6779H2.87277V20.5733ZM4.74807 25.5533V28.658H2.87277V25.5533H4.74807Z" fill="white"/>
<path d="M14.3746 26.7089H17.6252V32H14.3746V26.7089ZM4.37305 12.8523H27.6268V15.9781H4.37305V12.8523ZM17.1046 7.01837H16.9376V5.41756H21.2537V0H15.0623V7.01837H14.8952C12.2765 7.01837 10.0362 8.66508 9.15244 10.9769H22.8474C21.9636 8.66508 19.7233 7.01837 17.1046 7.01837Z" fill="white"/>
</g>
<defs>
<clipPath id="clip0_478_13687">
<rect width="32" height="32" fill="white"/>
</clipPath>
</defs>
</svg>
