<svg width="32" height="32" viewBox="0 0 32 32" fill="none" xmlns="http://www.w3.org/2000/svg">
<path fill-rule="evenodd" clip-rule="evenodd" d="M15.5625 1.21875C15.5625 1.10272 15.6086 0.991438 15.6906 0.909391C15.7727 0.827344 15.884 0.78125 16 0.78125C16.116 0.78125 16.2273 0.827344 16.3094 0.909391C16.3914 0.991438 16.4375 1.10272 16.4375 1.21875V4.08856H17.8829C18.055 4.08856 18.1954 4.22894 18.1954 4.40106V5.41706H13.7733V4.40106C13.7733 4.22894 13.9137 4.08856 14.0858 4.08856H15.5625V1.21875ZM10.7074 29.5576C10.7074 31.7725 2.68644 31.7725 2.68644 29.5576C2.68644 27.3428 4.48219 25.5473 6.69706 25.5473C8.91188 25.5473 10.7074 27.3428 10.7074 29.5576ZM20.0104 29.5576C20.0104 31.7725 11.9895 31.7725 11.9895 29.5576C11.9895 27.3428 13.7853 25.5473 16.0001 25.5473C18.2149 25.5473 20.0104 27.3428 20.0104 29.5576ZM14.1466 22.6255C14.1466 23.6492 14.9764 24.4791 16.0001 24.4791C17.0239 24.4791 17.8537 23.6492 17.8537 22.6255C17.8537 21.6021 17.0239 20.7722 16.0001 20.7722C14.9764 20.7722 14.1466 21.6021 14.1466 22.6255ZM29.3136 29.5205C29.3136 31.7354 21.2927 31.7354 21.2927 29.5205C21.2927 27.3057 23.0884 25.5102 25.3033 25.5102C27.5181 25.5102 29.3136 27.3057 29.3136 29.5205ZM23.4497 22.5884C23.4497 23.6121 24.2795 24.4419 25.3033 24.4419C26.3271 24.4419 27.1569 23.6121 27.1569 22.5884C27.1569 21.5649 26.3271 20.7351 25.3033 20.7351C24.2795 20.7351 23.4497 21.5649 23.4497 22.5884ZM4.84344 22.6255C4.84344 23.6492 5.67325 24.4791 6.69706 24.4791C7.72088 24.4791 8.55062 23.6492 8.55062 22.6255C8.55062 21.6021 7.72081 20.7722 6.69706 20.7722C5.67331 20.7722 4.84344 21.6021 4.84344 22.6255ZM21.0746 6.292H10.9254C10.8425 6.29216 10.7632 6.32514 10.7046 6.38371C10.646 6.44228 10.613 6.52167 10.6129 6.6045V26.6366C10.9349 27.0672 11.1835 27.5482 11.3484 28.0601C11.829 26.5668 13.0089 25.387 14.5021 24.9063C13.7609 24.4184 13.2716 23.579 13.2716 22.6255C13.2716 21.1189 14.4936 19.8972 16.0001 19.8972C17.5066 19.8972 18.7287 21.119 18.7287 22.6255C18.7287 23.579 18.2394 24.4184 17.4981 24.9063C18.9852 25.385 20.1614 26.5571 20.6456 28.0416C20.8105 27.5229 21.0611 27.0355 21.3871 26.5996V6.6045C21.3871 6.43237 21.2468 6.292 21.0746 6.292ZM1.4375 14.6434V28.9422C1.4375 29.1143 1.57788 29.2547 1.75 29.2547H1.82069C1.94569 27.2126 3.32581 25.5093 5.199 24.9064C4.45781 24.4185 3.96844 23.5791 3.96844 22.6256C3.96844 21.119 5.1905 19.8973 6.697 19.8973C8.2035 19.8973 9.42556 21.1191 9.42556 22.6256C9.42556 23.5791 8.93625 24.4185 8.195 24.9064C8.75504 25.087 9.27776 25.3674 9.73787 25.7342V11.0411L1.63175 14.3542C1.51181 14.4032 1.4375 14.5138 1.4375 14.6434ZM8.16562 14.9951L3.10413 17.0566C3.08515 17.0644 3.06454 17.0674 3.04413 17.0653C3.02372 17.0632 3.00413 17.0562 2.98711 17.0447C2.97008 17.0333 2.95614 17.0178 2.94653 16.9997C2.93692 16.9815 2.93193 16.9613 2.932 16.9408V15.4761C2.932 15.4242 2.96181 15.3799 3.00988 15.3603L8.07137 13.2989C8.09035 13.2911 8.11096 13.2881 8.13137 13.2901C8.15178 13.2922 8.17137 13.2993 8.18839 13.3107C8.20542 13.3222 8.21935 13.3376 8.22897 13.3558C8.23858 13.3739 8.24357 13.3941 8.2435 13.4146V14.8794C8.24378 14.9043 8.23648 14.9287 8.22257 14.9494C8.20866 14.97 8.1888 14.986 8.16562 14.9951ZM12.1826 7.71588H19.8174C19.8863 7.71588 19.9424 7.772 19.9424 7.84088V9.32556C19.9424 9.39444 19.8863 9.45056 19.8174 9.45056H12.1826C12.1137 9.45056 12.0576 9.39444 12.0576 9.32556V7.84088C12.0576 7.77206 12.1137 7.71588 12.1826 7.71588ZM17.2332 15.8629H19.8174C19.8863 15.8629 19.9424 15.919 19.9424 15.9879V18.2043C19.9424 18.2732 19.8863 18.3293 19.8174 18.3293H17.2332C17.1644 18.3293 17.1082 18.2732 17.1082 18.2043V15.9879C17.1082 15.9191 17.1644 15.8629 17.2332 15.8629ZM12.1826 15.8629H14.7668C14.8356 15.8629 14.8918 15.919 14.8918 15.9879V18.2043C14.8918 18.2732 14.8356 18.3293 14.7668 18.3293H12.1826C12.1137 18.3293 12.0576 18.2732 12.0576 18.2043V15.9879C12.0576 15.9191 12.1137 15.8629 12.1826 15.8629ZM23.9287 13.2989L28.9902 15.3603C29.0134 15.3694 29.0332 15.3854 29.0471 15.4061C29.0611 15.4267 29.0683 15.4511 29.0681 15.4761V16.9408C29.0681 16.9613 29.0631 16.9815 29.0535 16.9997C29.0439 17.0178 29.03 17.0333 29.013 17.0447C28.9959 17.0562 28.9763 17.0632 28.9559 17.0653C28.9355 17.0674 28.9149 17.0644 28.8959 17.0566L23.8344 14.9951C23.8113 14.986 23.7914 14.97 23.7775 14.9494C23.7636 14.9287 23.7563 14.9043 23.7566 14.8794V13.4146C23.7565 13.3941 23.7615 13.3739 23.7711 13.3558C23.7807 13.3376 23.7946 13.3222 23.8117 13.3107C23.8287 13.2993 23.8483 13.2922 23.8687 13.2901C23.8891 13.2881 23.9097 13.2911 23.9287 13.2989ZM17.2332 11.641H19.8174C19.8863 11.641 19.9424 11.6971 19.9424 11.766V13.9824C19.9424 14.0513 19.8863 14.1074 19.8174 14.1074H17.2332C17.1644 14.1074 17.1082 14.0513 17.1082 13.9824V11.766C17.1082 11.6971 17.1644 11.641 17.2332 11.641ZM12.1826 11.641H14.7668C14.8356 11.641 14.8918 11.6971 14.8918 11.766V13.9824C14.8918 14.0513 14.8356 14.1074 14.7668 14.1074H12.1826C12.1137 14.1074 12.0576 14.0513 12.0576 13.9824V11.766C12.0576 11.6971 12.1137 11.641 12.1826 11.641ZM22.2621 11.0411V25.6972C22.7222 25.3303 23.2451 25.0497 23.8053 24.8692C23.0641 24.3813 22.5747 23.5419 22.5747 22.5884C22.5747 21.0818 23.7967 19.8601 25.3032 19.8601C26.8097 19.8601 28.0318 21.0819 28.0318 22.5884C28.0318 23.5419 27.5424 24.3813 26.8013 24.8692C28.6858 25.4758 30.0708 27.1962 30.1812 29.2546H30.25C30.4221 29.2546 30.5625 29.1143 30.5625 28.9421V14.6434C30.5625 14.5138 30.4882 14.4031 30.3682 14.3541L22.2621 11.0411Z" fill="white"/>
</svg>
