<svg width="32" height="32" viewBox="0 0 32 32" fill="none" xmlns="http://www.w3.org/2000/svg">
<g clip-path="url(#clip0_478_13694)">
<g clip-path="url(#clip1_478_13694)">
<path d="M28.0552 -1H13.9964C12.3694 -1 11.0508 0.318875 11.0508 1.94556V8.87056C11.794 9.23994 12.597 9.63937 13.3465 10.0119L14.4932 7.71756C15.1876 6.33006 16.8802 5.76631 18.2672 6.45944C19.657 7.15506 20.2203 8.843 19.5245 10.2332L17.4803 14.3226C17.535 14.8653 17.4853 15.4135 17.3338 15.9375H18.6834L15.1238 25.7256C14.9126 26.3061 15.3208 26.9836 16.0052 26.9836C16.3877 26.9836 16.7477 26.7476 16.8858 26.3662L20.6783 15.9375H21.3353L25.1663 26.3694C25.3057 26.7488 25.6646 26.9836 26.0469 26.9836C26.6863 26.9836 27.155 26.345 26.9263 25.7231L23.3326 15.9375H28.0553C29.6819 15.9375 31.0008 14.6186 31.0008 12.9919V1.94563C31.0008 0.318875 29.6819 -1 28.0552 -1ZM26.0465 11.9211H21.8402C21.3225 11.9211 20.9027 11.5013 20.9027 10.9836C20.9027 10.4656 21.3225 10.0461 21.8402 10.0461H26.0464C26.5645 10.0461 26.9839 10.4656 26.9839 10.9836C26.9839 11.5013 26.5646 11.9211 26.0465 11.9211ZM26.0465 8.40625H21.8402C21.3225 8.40625 20.9027 7.98687 20.9027 7.46875C20.9027 6.95119 21.3225 6.53125 21.8402 6.53125H26.0464C26.5645 6.53125 26.9839 6.95119 26.9839 7.46875C26.9839 7.98687 26.5646 8.40625 26.0465 8.40625ZM26.0465 4.89187H16.0052C15.487 4.89187 15.0677 4.47187 15.0677 3.95437C15.0677 3.43687 15.487 3.01687 16.0052 3.01687H26.0464C26.5645 3.01687 26.9839 3.43675 26.9839 3.95437C26.9839 4.472 26.5645 4.89187 26.0465 4.89187Z" fill="white"/>
<path d="M15.4951 15.5354C15.6645 15.0391 15.6633 14.5205 15.5203 14.0474L17.8469 9.3945C18.0784 8.93137 17.8909 8.36819 17.4277 8.13669C16.9649 7.905 16.4016 8.09275 16.1699 8.55594L14.1856 12.5242C12.9995 11.9336 11.1975 11.0376 9.74588 10.3157C8.39525 9.64406 7.43137 9.04175 5.78687 9.04175H4.9585C6.239 9.04175 7.38181 8.45237 8.12988 7.53C8.70069 6.82812 9.042 5.93356 9.042 4.95875C9.042 2.70312 7.21388 0.875 4.958 0.875C2.70313 0.875 0.875 2.70312 0.875 4.95875C0.875 6.042 1.29688 7.02638 1.98513 7.75688C2.72925 8.54813 3.78612 9.04175 4.95775 9.042C3.38694 9.042 1.85131 9.67844 0.746562 10.7861C-0.379688 11.9094 -1 13.406 -1 15.0002V18.0128C-1 19.3096 -0.157938 20.4131 1.00831 20.8057V26.0459C1.00831 26.5638 1.428 26.9834 1.94581 26.9834H7.97069C8.4885 26.9834 8.90819 26.5638 8.90819 26.0459V15.5125C9.79713 15.9569 10.9649 16.5406 11.9097 17.0133C12.572 17.3443 13.3459 17.3741 14.0361 17.0933C14.7244 16.8101 15.2549 16.2464 15.4914 15.5464L15.4951 15.5354Z" fill="white"/>
</g>
</g>
<defs>
<clipPath id="clip0_478_13694">
<rect width="32" height="32" fill="white"/>
</clipPath>
<clipPath id="clip1_478_13694">
<rect width="32" height="32" fill="white" transform="translate(-1 -1)"/>
</clipPath>
</defs>
</svg>
