<svg width="38" height="38" viewBox="0 0 38 38" fill="none" xmlns="http://www.w3.org/2000/svg">
<path fill-rule="evenodd" clip-rule="evenodd" d="M16.0538 28.9652H20.608V38H16.0538V28.9652ZM23.7736 38H28.3277V25.4684H23.7736V38ZM31.4933 38H36.0475V21.9717H31.4933V38ZM8.33402 38H12.8882V32.462H8.33402V38ZM11.4566 23.9451C10.4099 25.3935 12.2525 26.7913 13.4022 25.5122L16.2745 22.3164C16.953 21.5615 17.264 20.6823 17.2636 19.667L17.2629 17.963L14.0994 16.9137L14.3122 19.0499C14.3659 19.5886 14.2554 20.0724 13.9384 20.511L11.4566 23.9451ZM20.2601 11.6077C20.8178 12.2697 21.5637 12.6155 22.4289 12.6132L25.2366 12.6058C25.4732 12.6055 25.7009 12.5156 25.874 12.3542C26.047 12.1927 26.1526 11.9717 26.1694 11.7355L26.1801 11.5892C26.2169 11.0843 25.8453 10.6499 25.3432 10.5875L22.762 10.266C22.3102 10.2098 21.9393 9.99012 21.6928 9.60708L20.5435 7.82052L19.8542 11.1257L20.2601 11.6076L20.2601 11.6077ZM17.9947 4.83512C19.325 4.83512 20.41 3.74915 20.41 2.41756C20.41 1.08597 19.325 0 17.9947 0C16.6643 0 15.5793 1.08597 15.5793 2.41756C15.5793 3.74915 16.6643 4.83512 17.9947 4.83512ZM33.2271 18.2843C33.2271 18.4285 33.2843 18.5668 33.3862 18.6688C33.4881 18.7707 33.6263 18.828 33.7704 18.828C33.9145 18.828 34.0526 18.7707 34.1545 18.6688C34.2564 18.5668 34.3136 18.4285 34.3136 18.2843V17.2197C34.3136 17.0755 34.2564 16.9372 34.1545 16.8352C34.0526 16.7333 33.9145 16.676 33.7704 16.676C33.6263 16.676 33.4881 16.7333 33.3862 16.8352C33.2843 16.9372 33.2271 17.0755 33.2271 17.2197V18.2843ZM33.2271 15.4517C33.2271 15.5959 33.2843 15.7343 33.3862 15.8362C33.4881 15.9382 33.6263 15.9955 33.7704 15.9955C33.9145 15.9955 34.0526 15.9382 34.1545 15.8362C34.2564 15.7343 34.3136 15.5959 34.3136 15.4517V14.3872C34.3136 14.243 34.2564 14.1047 34.1545 14.0027C34.0526 13.9007 33.9145 13.8434 33.7704 13.8434C33.6263 13.8434 33.4881 13.9007 33.3862 14.0027C33.2843 14.1047 33.2271 14.243 33.2271 14.3872V15.4517ZM33.7704 10.3305C33.9145 10.3305 34.0526 10.2732 34.1545 10.1713C34.2564 10.0693 34.3136 9.93097 34.3136 9.78676V8.72223C34.3136 8.57801 34.2564 8.43971 34.1545 8.33773C34.0526 8.23576 33.9145 8.17847 33.7704 8.17847C33.6263 8.17847 33.4881 8.23576 33.3862 8.33773C33.2843 8.43971 33.2271 8.57801 33.2271 8.72223V9.78676C33.2271 9.93097 33.2843 10.0693 33.3862 10.1713C33.4881 10.2732 33.6263 10.3305 33.7704 10.3305ZM33.2271 12.6193C33.2271 12.7635 33.2843 12.9018 33.3862 13.0038C33.4881 13.1058 33.6263 13.163 33.7704 13.163C33.9145 13.163 34.0526 13.1058 34.1545 13.0038C34.2564 12.9018 34.3136 12.7635 34.3136 12.6193V11.5548C34.3136 11.4105 34.2564 11.2722 34.1545 11.1703C34.0526 11.0683 33.9145 11.011 33.7704 11.011C33.6263 11.011 33.4881 11.0683 33.3862 11.1703C33.2843 11.2722 33.2271 11.4105 33.2271 11.5548V12.6193ZM37.986 3.08398C37.9523 2.98012 37.867 2.90951 37.7587 2.89591L35.1411 2.56655L34.0193 0.176644C33.9729 0.0777578 33.8795 0.0184102 33.7703 0.0184102C33.6611 0.0184102 33.5677 0.0777578 33.5213 0.176644L32.3995 2.56655L29.7819 2.89591C29.6736 2.90958 29.5883 2.98012 29.5546 3.08398C29.5209 3.18783 29.5485 3.29511 29.628 3.36984L31.5523 5.17629L31.0563 7.76979C31.0358 7.87707 31.0765 7.98007 31.1648 8.04424C31.2531 8.1084 31.3636 8.11531 31.4591 8.06265L33.7702 6.78908L36.0813 8.06265C36.1269 8.08849 36.1789 8.10052 36.2312 8.09725C36.2835 8.09398 36.3336 8.07556 36.3756 8.04424C36.4184 8.01397 36.4514 7.97191 36.4707 7.92317C36.4899 7.87444 36.4946 7.82114 36.4841 7.76979L35.9882 5.17629L37.9125 3.36992C37.9921 3.29519 38.0196 3.18791 37.9859 3.08405L37.986 3.08398ZM36.9991 19.2121H29.2794C29.1353 19.2121 28.9971 19.2694 28.8952 19.3713C28.7934 19.4733 28.7361 19.6116 28.7361 19.7558V22.7088H23.3651C23.509 22.5407 23.6052 22.3189 23.6198 22.0419L23.8342 17.9736C23.9345 16.0706 22.7874 15.7997 21.3876 15.1631L18.1472 13.9875L19.6546 6.7598C19.1222 6.29962 18.4844 5.99053 17.7463 5.83626L16.0409 5.47986C15.5518 5.37764 15.1192 5.36047 14.6235 5.42362L12.0869 5.74669C11.1384 5.86741 10.36 6.4215 9.99467 7.30581L8.32393 11.3496C7.66199 12.9518 9.58876 13.7564 10.353 12.326L12.4792 8.34665L14.2675 8.32956L13.1826 13.7071C13.0113 14.556 13.3549 15.5212 14.1763 15.7936L21.0775 18.0826L21.3548 22.0712C21.3732 22.335 21.4643 22.5472 21.5998 22.7089H21.5597C21.4156 22.7089 21.2775 22.7662 21.1756 22.8682C21.0737 22.9702 21.0165 23.1085 21.0165 23.2527V26.2057H13.84C13.6959 26.2057 13.5577 26.263 13.4558 26.3649C13.3539 26.4669 13.2967 26.6052 13.2967 26.7494V29.7025H6.12017C5.97608 29.7025 5.8379 29.7598 5.73601 29.8618C5.63413 29.9638 5.57689 30.1021 5.57689 30.2463V33.7431C5.57689 33.8873 5.63413 34.0256 5.73601 34.1276C5.8379 34.2295 5.97608 34.2868 6.12017 34.2868C6.26425 34.2868 6.40244 34.2295 6.50432 34.1276C6.60621 34.0256 6.66344 33.8873 6.66344 33.7431V30.79H13.84C13.9841 30.79 14.1223 30.7327 14.2241 30.6307C14.326 30.5287 14.3833 30.3904 14.3833 30.2462V27.2931H21.5597C21.7038 27.2931 21.842 27.2358 21.9439 27.1339C22.0458 27.0319 22.103 26.8936 22.103 26.7494V23.7964H29.2795C29.4236 23.7964 29.5617 23.7391 29.6636 23.6371C29.7655 23.5351 29.8228 23.3968 29.8228 23.2526V20.2996H36.9993C37.1434 20.2996 37.2816 20.2423 37.3835 20.1403C37.4853 20.0383 37.5426 19.9 37.5426 19.7558C37.5426 19.6116 37.4853 19.4733 37.3835 19.3713C37.2816 19.2694 37.1434 19.2121 36.9993 19.2121H36.9991ZM8.67815 23.3057L10.2825 20.5244C10.1362 20.4854 9.99567 20.4273 9.86459 20.3514L6.43985 18.3723L6.40058 18.4405C6.32753 18.563 6.20922 18.6517 6.07127 18.6876C5.93331 18.7234 5.78681 18.7034 5.66348 18.6319C5.54014 18.5604 5.44991 18.4432 5.41231 18.3056C5.3747 18.168 5.39276 18.0211 5.46257 17.8967L5.50114 17.8299L2.07678 15.8511C1.9456 15.7754 1.82501 15.6827 1.71814 15.5753L0.113765 18.3567C-0.121086 18.7638 0.019545 19.2891 0.426305 19.5242L7.51166 23.6185C7.91842 23.8535 8.4433 23.7128 8.67815 23.3057ZM2.34733 14.1575L2.72235 13.13C2.78203 12.9664 2.89899 12.8496 3.06252 12.7901C3.22605 12.7306 3.39066 12.7451 3.54138 12.8322L5.45209 13.9363L5.86871 13.2142C6.16332 12.7033 6.82332 12.5249 7.33307 12.8225L9.858 14.2816C10.3684 14.5774 10.5442 15.236 10.2493 15.7471L9.83347 16.4681L11.7446 17.5725C11.8953 17.6596 11.9901 17.795 12.0204 17.9665C12.0507 18.138 12.0081 18.2977 11.8964 18.4313L11.1948 19.2701C11.1015 19.383 10.9711 19.4589 10.827 19.4845C10.6829 19.51 10.5344 19.4834 10.408 19.4094L6.98328 17.4303L7.02294 17.3616C7.09275 17.2372 7.1108 17.0903 7.0732 16.9527C7.0356 16.8151 6.94536 16.6979 6.82203 16.6264C6.6987 16.5549 6.5522 16.5349 6.41424 16.5707C6.27628 16.6066 6.15798 16.6953 6.08493 16.8178L6.0445 16.8878L2.62014 14.909C2.49297 14.8364 2.39571 14.721 2.34572 14.5833C2.29574 14.4457 2.29628 14.2947 2.34726 14.1573L2.34733 14.1575ZM6.3908 14.4788L8.89469 15.9257L9.30478 15.2147L6.80089 13.7678L6.3908 14.4788Z" fill="white"/>
</svg>
