<svg width="37" height="37" viewBox="0 0 37 37" fill="none" xmlns="http://www.w3.org/2000/svg">
<path d="M35.1719 30.7534L29.1147 24.6962C29.0079 24.5894 28.8812 24.5047 28.7416 24.4469C28.6021 24.389 28.4526 24.3593 28.3015 24.3593C28.1505 24.3593 28.0009 24.389 27.8614 24.4469C27.7219 24.5047 27.5951 24.5894 27.4883 24.6962L24.7827 21.9906C26.5991 19.5586 27.5073 16.6592 27.5073 13.7598C27.5073 10.2334 26.1621 6.707 23.4831 4.0242C17.8869 -1.56788 8.63804 -1.3319 3.35452 4.73252C-1.13024 9.88 -1.11618 17.6882 3.38492 22.8217C6.13118 25.954 9.94182 27.5196 13.7475 27.5196C16.6469 27.5196 19.5463 26.6114 21.9783 24.795L24.6839 27.5006C24.5771 27.6074 24.4924 27.7342 24.4346 27.8737C24.3768 28.0132 24.347 28.1628 24.347 28.3138C24.347 28.4648 24.3768 28.6144 24.4346 28.7539C24.4924 28.8934 24.5771 29.0202 24.6839 29.127L30.6647 35.1082C31.2287 35.6717 31.97 36.0491 32.7661 36.0947C33.2087 36.1219 33.6521 36.0548 34.0668 35.8979C34.4816 35.7409 34.8582 35.4976 35.1719 35.1842C36.3917 33.9606 36.3917 31.9732 35.1719 30.7534ZM21.4843 21.4966C17.2207 25.7602 10.2781 25.764 6.01072 21.4966C1.74332 17.233 1.74332 10.2904 6.01072 6.023C8.14252 3.8874 10.9469 2.8234 13.7475 2.8234C16.5519 2.8234 19.3525 3.8874 21.4843 6.023C25.7517 10.2904 25.7517 17.233 21.4843 21.4966Z" fill="white"/>
<path d="M18.2422 10.3665H20.3535C20.6579 10.3665 20.9049 10.6131 20.9049 10.9175V19.3972C20.9049 19.7015 20.6579 19.9485 20.3535 19.9485H18.2418C17.9375 19.9485 17.6905 19.7015 17.6905 19.3972V10.9175C17.6905 10.6127 17.9375 10.3657 18.2418 10.3657L18.2422 10.3665ZM7.14318 14.5225H9.25446C9.55922 14.5225 9.80584 14.7695 9.80584 15.0743V19.3972C9.80584 19.7015 9.55884 19.9485 9.25446 19.9485H7.14318C6.83842 19.9485 6.5918 19.7015 6.5918 19.3972V15.0743C6.5918 14.7695 6.8388 14.5225 7.14318 14.5225ZM12.6946 7.5708H14.8021C15.1068 7.5708 15.3538 7.8178 15.3538 8.12218V19.3968C15.3538 19.7015 15.1068 19.9485 14.8021 19.9485H12.6946C12.3898 19.9485 12.1432 19.7015 12.1432 19.3972V8.12256C12.1432 7.8178 12.3902 7.5708 12.6946 7.5708Z" fill="white"/>
</svg>
