<svg width="38" height="38" viewBox="0 0 38 38" fill="none" xmlns="http://www.w3.org/2000/svg">
<path d="M33.5295 7.77875V5.54346H31.2495C30.9531 5.54352 30.6689 5.66131 30.4594 5.87093L27.7323 8.59799C27.4347 8.20712 27.1078 7.83947 26.7543 7.49822C25.5508 6.28703 23.9174 5.60049 22.21 5.58816C21.4941 5.60936 20.7868 5.75066 20.1178 6.00616V11.1272H21.2354C21.5318 11.1272 21.8161 11.245 22.0257 11.4546C22.2353 11.6642 22.3531 11.9485 22.3531 12.2449C22.3531 12.5413 22.2353 12.8256 22.0257 13.0352C21.8161 13.2448 21.5318 13.3625 21.2354 13.3625H20.1178V31.9356C20.6669 32.1101 21.2393 32.2001 21.8155 32.2027C23.3205 32.2011 24.772 31.6439 25.8915 30.638C26.4449 30.1459 26.9528 29.605 27.4093 29.0219L30.4515 32.1256C30.5556 32.2317 30.6797 32.316 30.8167 32.3736C30.9538 32.4312 31.1009 32.4608 31.2495 32.4609H33.5295V30.2256H31.7189L28.5683 27.0112C28.8852 26.2423 29.0518 25.4198 29.0589 24.5882H26.8236C26.5272 24.5882 26.2429 24.7059 26.0333 24.9155C25.8237 25.1251 25.706 25.4094 25.706 25.7058C25.706 26.0022 25.5882 26.2865 25.3786 26.4961C25.169 26.7057 24.8848 26.8235 24.5884 26.8235C24.2919 26.8235 24.0077 26.7057 23.7981 26.4961C23.5885 26.2865 23.4707 26.0022 23.4707 25.7058C23.4707 24.8166 23.824 23.9637 24.4528 23.3349C25.0816 22.7061 25.9344 22.3529 26.8236 22.3529H29.5641C30.4147 21.4132 30.9786 20.2498 31.1892 18.9999H33.5295V16.7646H31.1881C31.0917 16.1888 30.9199 15.6281 30.6773 15.0971C30.2356 16.062 29.57 16.9076 28.7359 17.5638C28.5031 17.7472 28.2069 17.8307 27.9125 17.7958C27.6181 17.7609 27.3497 17.6105 27.1662 17.3777C26.9827 17.1448 26.8992 16.8486 26.9341 16.5543C26.969 16.2599 27.1195 15.9914 27.3523 15.8079C27.8697 15.4008 28.2901 14.8838 28.5832 14.2942C28.8762 13.7047 29.0345 13.0574 29.0466 12.3991C29.0556 11.8181 28.9757 11.2392 28.8097 10.6824L31.7156 7.77652L33.5295 7.77875ZM11.247 7.49822C10.8932 7.83946 10.5659 8.20711 10.2679 8.59799L7.54088 5.87093C7.33133 5.66131 7.0471 5.54352 6.7507 5.54346H4.4707V7.77875H6.288L9.19388 10.6846C9.02786 11.2414 8.94796 11.8204 8.95694 12.4013C8.96906 13.0596 9.12737 13.7069 9.42041 14.2965C9.71344 14.886 10.1339 15.4031 10.6513 15.8102C10.8841 15.9936 11.0345 16.2621 11.0694 16.5565C11.1043 16.8509 11.0209 17.1471 10.8374 17.3799C10.6539 17.6127 10.3854 17.7631 10.0911 17.798C9.79667 17.8329 9.50048 17.7495 9.26764 17.566C8.43355 16.9099 7.76801 16.0643 7.32629 15.0993C7.08459 15.6298 6.91362 16.1897 6.81776 16.7646H4.4707V18.9999H6.81106C7.02163 20.2498 7.58552 21.4132 8.43611 22.3529H11.1766C12.0658 22.3529 12.9187 22.7061 13.5475 23.3349C14.1763 23.9637 14.5295 24.8166 14.5295 25.7058C14.5295 26.0022 14.4118 26.2865 14.2022 26.4961C13.9926 26.7057 13.7083 26.8235 13.4119 26.8235C13.1155 26.8235 12.8312 26.7057 12.6216 26.4961C12.412 26.2865 12.2942 26.0022 12.2942 25.7058C12.2942 25.4094 12.1765 25.1251 11.9669 24.9155C11.7573 24.7059 11.473 24.5882 11.1766 24.5882H8.94129C8.94841 25.4181 9.11419 26.2391 9.4297 27.0067L6.28129 30.2211H4.4707V32.4564H6.7507C6.89933 32.4564 7.04646 32.4267 7.18348 32.3691C7.3205 32.3116 7.44467 32.2272 7.5487 32.1211L10.5921 29.0163C11.0479 29.6003 11.5559 30.1416 12.1098 30.6335C13.2259 31.6392 14.6746 32.1966 16.1769 32.1982C16.7556 32.1953 17.3306 32.1053 17.8825 31.9311V13.3625H16.7648C16.4684 13.3625 16.1841 13.2448 15.9745 13.0352C15.7649 12.8256 15.6472 12.5413 15.6472 12.2449C15.6472 11.9485 15.7649 11.6642 15.9745 11.4546C16.1841 11.245 16.4684 11.1272 16.7648 11.1272H17.8825V6.00616C17.2134 5.75066 16.5061 5.60936 15.7902 5.58816C14.9438 5.58697 14.1056 5.75538 13.3253 6.08343C12.545 6.41149 11.8383 6.89255 11.247 7.49822Z" fill="white"/>
</svg>
