<svg width="34" height="31" viewBox="0 0 34 31" fill="none" xmlns="http://www.w3.org/2000/svg">
<path d="M32.6099 6.289C33.026 6.88179 33.2495 7.58828 33.25 8.3125V27.3125C33.25 29.2719 31.6469 30.875 29.6875 30.875H3.5625C1.60313 30.875 0 29.2719 0 27.3125V8.3125C0 7.56081 0.238688 6.86494 0.640063 6.289L5.43281 13.851C5.7578 14.3393 6.19847 14.7396 6.7156 15.0164C7.23273 15.2932 7.81027 15.4379 8.39681 15.4375H12.0947C12.3388 16.1301 12.7913 16.7302 13.39 17.1554C13.9887 17.5806 14.7043 17.8101 15.4387 17.8125H17.8137C18.548 17.8101 19.2637 17.5806 19.8624 17.1554C20.4611 16.7302 20.9136 16.1301 21.1577 15.4375H24.8556C26.049 15.4375 27.1569 14.8438 27.835 13.8284L32.6123 6.29019L32.6099 6.289ZM15.4375 13.0625C14.7832 13.0625 14.25 13.5957 14.25 14.25C14.25 14.9043 14.7832 15.4375 15.4375 15.4375H17.8125C18.4668 15.4375 19 14.9043 19 14.25C19 13.5957 18.4668 13.0625 17.8125 13.0625H15.4375ZM2.57569 4.90794C2.89156 4.81531 3.21813 4.75 3.5625 4.75H9.5V3.5625C9.5 1.60313 11.1031 0 13.0625 0H20.1875C22.1469 0 23.75 1.60313 23.75 3.5625V4.75H29.6875C30.0319 4.75 30.3584 4.81531 30.6743 4.90794L25.8424 12.5341C25.7341 12.6968 25.5872 12.8302 25.4148 12.9224C25.2424 13.0146 25.0499 13.0627 24.8544 13.0625H21.1565C20.9124 12.3699 20.4599 11.7698 19.8612 11.3446C19.2625 10.9194 18.5468 10.6899 17.8125 10.6875H15.4375C14.7032 10.6899 13.9875 10.9194 13.3888 11.3446C12.7901 11.7698 12.3376 12.3699 12.0935 13.0625H8.39562C8.20461 13.0635 8.01623 13.018 7.84677 12.9299C7.67731 12.8417 7.53188 12.7136 7.42306 12.5566L2.57569 4.90794ZM11.875 4.75H21.375V3.5625C21.375 2.90937 20.8406 2.375 20.1875 2.375H13.0625C12.4094 2.375 11.875 2.90937 11.875 3.5625V4.75Z" fill="white"/>
</svg>
