<svg width="33" height="39" viewBox="0 0 33 39" fill="none" xmlns="http://www.w3.org/2000/svg">
<path d="M18.4485 14.7832C20.7089 15.8295 22.4296 17.3693 23.3956 18.9895C24.3637 20.6132 24.5485 22.2627 23.8696 23.602C23.1908 24.9412 21.7218 25.8253 19.7884 26.106C17.8592 26.386 15.528 26.0504 13.2677 25.0042C11.0074 23.9579 9.28656 22.4181 8.32059 20.7979C7.35254 19.1742 7.16779 17.5246 7.84659 16.1854C8.52541 14.8462 9.99446 13.9621 11.9278 13.6814C13.857 13.4013 16.1881 13.737 18.4485 14.7832Z" fill="#8CBE5A" stroke="#04B36F"/>
<ellipse cx="5.67806" cy="4.67209" rx="5.67806" ry="4.67209" transform="matrix(0.9075 0.420052 -0.452118 0.891958 10.2425 12.1489)" fill="#8CBE5A"/>
<mask id="path-3-inside-1_478_19444" fill="white">
<path d="M20.0076 21.5738C20.0043 21.5805 20.0017 21.5876 19.9983 21.5943C19.9951 21.6006 19.9911 21.6067 19.9877 21.613L19.8336 21.917L19.792 21.8977C18.9564 22.8609 16.845 22.9209 14.8061 21.9773C12.767 21.0335 11.5067 19.4127 11.7796 18.189L11.7362 18.1689L15.3324 11.0742L23.4298 14.8223L20.0076 21.5738Z"/>
</mask>
<path d="M20.0076 21.5738C20.0043 21.5805 20.0017 21.5876 19.9983 21.5943C19.9951 21.6006 19.9911 21.6067 19.9877 21.613L19.8336 21.917L19.792 21.8977C18.9564 22.8609 16.845 22.9209 14.8061 21.9773C12.767 21.0335 11.5067 19.4127 11.7796 18.189L11.7362 18.1689L15.3324 11.0742L23.4298 14.8223L20.0076 21.5738Z" fill="#0ACF83"/>
<path d="M20.0076 21.5738L19.1001 21.1538L19.0966 21.1606L19.0933 21.1675L20.0076 21.5738ZM19.9983 21.5943L20.9058 22.0143L20.9059 22.0143L19.9983 21.5943ZM19.9877 21.613L19.087 21.1799L19.0835 21.1864L19.0802 21.193L19.9877 21.613ZM19.8336 21.917L19.3815 22.809L20.289 23.229L20.7411 22.3371L19.8336 21.917ZM19.792 21.8977L20.2441 21.0058L19.5376 20.6787L19.0231 21.2718L19.792 21.8977ZM14.8061 21.9773L14.3539 22.8693L14.354 22.8693L14.8061 21.9773ZM11.7796 18.189L12.7702 18.3776L12.9383 17.6241L12.2317 17.2971L11.7796 18.189ZM11.7362 18.1689L10.8287 17.7489L10.3765 18.6409L11.284 19.0609L11.7362 18.1689ZM15.3324 11.0742L15.7845 10.1823L14.877 9.76221L14.4249 10.6542L15.3324 11.0742ZM23.4298 14.8223L24.3373 15.2423L24.7895 14.3504L23.882 13.9303L23.4298 14.8223ZM20.0076 21.5738L19.0933 21.1675C19.0853 21.1838 19.0793 21.1973 19.0756 21.2056C19.0737 21.2098 19.0722 21.2133 19.0712 21.2156C19.0707 21.2167 19.0703 21.2176 19.07 21.2183C19.0696 21.2193 19.0698 21.2189 19.0695 21.2194C19.0693 21.2199 19.0698 21.2188 19.0705 21.2172C19.0712 21.2155 19.0725 21.2126 19.0742 21.2088C19.0775 21.2016 19.0832 21.1893 19.0908 21.1742L19.9983 21.5943L20.9059 22.0143C20.9152 21.9958 20.9225 21.9802 20.9273 21.9695C20.9319 21.9593 20.9356 21.9508 20.9365 21.9487C20.9367 21.9483 20.9368 21.948 20.9369 21.9478C20.937 21.9475 20.9371 21.9474 20.9371 21.9473C20.9372 21.947 20.9372 21.9471 20.9371 21.9474C20.9368 21.9479 20.9361 21.9497 20.9349 21.9522C20.9328 21.9571 20.9282 21.9672 20.9219 21.9801L20.0076 21.5738ZM19.9983 21.5943L19.0908 21.1742C19.099 21.158 19.1061 21.1454 19.1103 21.1379C19.1124 21.1341 19.1142 21.1311 19.1152 21.1294C19.1161 21.1278 19.1168 21.1267 19.1165 21.1271C19.1165 21.1272 19.1164 21.1272 19.1163 21.1275C19.1162 21.1276 19.1161 21.1279 19.1159 21.1282C19.1155 21.1288 19.115 21.1298 19.1143 21.1309C19.113 21.1331 19.1109 21.1366 19.1085 21.1409C19.1037 21.1492 19.0959 21.1629 19.087 21.1799L19.9877 21.613L20.8885 22.0461C20.8812 22.0599 20.8752 22.0705 20.8722 22.0757C20.8706 22.0785 20.8695 22.0804 20.8691 22.0811C20.869 22.0813 20.8685 22.0821 20.8696 22.0802C20.8707 22.0784 20.8756 22.0701 20.8813 22.0601C20.8873 22.0495 20.896 22.0337 20.9058 22.0143L19.9983 21.5943ZM19.9877 21.613L19.0802 21.193L18.9261 21.497L19.8336 21.917L20.7411 22.3371L20.8952 22.0331L19.9877 21.613ZM19.8336 21.917L20.2858 21.025L20.2441 21.0058L19.792 21.8977L19.3399 22.7897L19.3815 22.809L19.8336 21.917ZM19.792 21.8977L19.0231 21.2718C18.8777 21.4393 18.4918 21.6523 17.7521 21.6668C17.0431 21.6808 16.1587 21.5021 15.2581 21.0853L14.8061 21.9773L14.354 22.8693C15.4923 23.3961 16.6831 23.6592 17.7484 23.6383C18.7831 23.6179 19.8707 23.3193 20.5609 22.5237L19.792 21.8977ZM14.8061 21.9773L15.2582 21.0854C14.3575 20.6685 13.6623 20.116 13.234 19.5756C12.7872 19.0118 12.7228 18.5903 12.7702 18.3776L11.7796 18.189L10.7889 18.0005C10.5635 19.0115 10.9928 20.0122 11.6177 20.8007C12.2611 21.6126 13.2156 22.3424 14.3539 22.8693L14.8061 21.9773ZM11.7796 18.189L12.2317 17.2971L12.1883 17.277L11.7362 18.1689L11.284 19.0609L11.3275 19.081L11.7796 18.189ZM11.7362 18.1689L12.6437 18.589L16.2399 11.4943L15.3324 11.0742L14.4249 10.6542L10.8287 17.7489L11.7362 18.1689ZM15.3324 11.0742L14.8802 11.9662L22.9777 15.7142L23.4298 14.8223L23.882 13.9303L15.7845 10.1823L15.3324 11.0742ZM23.4298 14.8223L22.5223 14.4022L19.1001 21.1538L20.0076 21.5738L20.9151 21.9939L24.3373 15.2423L23.4298 14.8223Z" fill="#04B36F" mask="url(#path-3-inside-1_478_19444)"/>
<rect width="1.6223" height="5.45078" transform="matrix(0.9075 0.420052 -0.452118 0.891958 15.7152 12.1094)" fill="#4BF1B1"/>
<path d="M23.7304 4.36505C25.5716 5.21732 26.939 6.53765 27.6732 7.96234C28.4072 9.38661 28.4986 10.8863 27.8557 12.1549C27.2126 13.4235 25.9242 14.2854 24.2995 14.6181C22.6746 14.9506 20.7426 14.7439 18.9015 13.8918C17.0602 13.0395 15.692 11.7188 14.9578 10.2941C14.2239 8.86977 14.1337 7.36959 14.7767 6.10105C15.4197 4.83271 16.7072 3.97101 18.3315 3.63835C19.9565 3.30566 21.8891 3.51277 23.7304 4.36505Z" fill="#8CBE5A" stroke="#04B36F"/>
<ellipse cx="3.24461" cy="2.72539" rx="3.24461" ry="2.72539" transform="matrix(0.9075 0.420052 -0.452118 0.891958 17.3792 3.44727)" fill="#9FDB62"/>
<rect width="1.6223" height="10.1229" transform="matrix(0.9075 0.420052 -0.452118 0.891958 11.9378 24.939)" fill="white"/>
</svg>
